<?xml version="1.0" encoding="UTF-8" standalone="no"?>
<svg
   width="1000"
   height="259.828"
   version="1.1"
   id="svg18"
   sodipodi:docname="pronamic-logo-1000x.svg"
   inkscape:version="1.3.2 (091e20e, 2023-11-25)"
   xmlns:inkscape="http://www.inkscape.org/namespaces/inkscape"
   xmlns:sodipodi="http://sodipodi.sourceforge.net/DTD/sodipodi-0.dtd"
   xmlns="http://www.w3.org/2000/svg"
   xmlns:svg="http://www.w3.org/2000/svg">
  <sodipodi:namedview
     id="namedview18"
     pagecolor="#ffffff"
     bordercolor="#666666"
     borderopacity="1.0"
     inkscape:showpageshadow="2"
     inkscape:pageopacity="0.0"
     inkscape:pagecheckerboard="true"
     inkscape:deskcolor="#d1d1d1"
     inkscape:zoom="0.506"
     inkscape:cx="500.98814"
     inkscape:cy="129.44664"
     inkscape:window-width="1592"
     inkscape:window-height="1122"
     inkscape:window-x="3135"
     inkscape:window-y="446"
     inkscape:window-maximized="0"
     inkscape:current-layer="svg18" />
  <defs
     id="defs9">
    <clipPath
       id="a"
       clipPathUnits="userSpaceOnUse">
      <path
         d="M-379.606 230.29h500v-500h-500Z"
         id="path1" />
    </clipPath>
    <clipPath
       id="b"
       clipPathUnits="userSpaceOnUse">
      <path
         d="M-128.565 249.39h500v-500h-500Z"
         id="path2" />
    </clipPath>
    <clipPath
       id="c"
       clipPathUnits="userSpaceOnUse">
      <path
         d="M-145.293 251.754h500v-500h-500Z"
         id="path3" />
    </clipPath>
    <clipPath
       id="d"
       clipPathUnits="userSpaceOnUse">
      <path
         d="M-186.733 269.941h500v-500h-500Z"
         id="path4" />
    </clipPath>
    <clipPath
       id="e"
       clipPathUnits="userSpaceOnUse">
      <path
         d="M-212.773 249.45h500v-500h-500Z"
         id="path5" />
    </clipPath>
    <clipPath
       id="f"
       clipPathUnits="userSpaceOnUse">
      <path
         d="M-257.151 260.848h500v-500h-500Z"
         id="path6" />
    </clipPath>
    <clipPath
       id="g"
       clipPathUnits="userSpaceOnUse">
      <path
         d="M-289.282 276.125h500v-500h-500Z"
         id="path7" />
    </clipPath>
    <clipPath
       id="h"
       clipPathUnits="userSpaceOnUse">
      <path
         d="M0 500h500V0H0Z"
         id="path8" />
    </clipPath>
    <clipPath
       id="i"
       clipPathUnits="userSpaceOnUse">
      <path
         d="M-359.35 270.123h500v-500h-500Z"
         id="path9" />
    </clipPath>
  </defs>
  <g
     id="g18"
     transform="matrix(1.3333326,0,0,1.3333326,-166.66665,-43.304874)">
    <path
       d="m 0,0 c 2.902,0.055 4.553,1.395 4.553,3.556 0,3.589 -4.037,5.621 -11.676,5.877 l -0.586,0.02 V 5.169 L -4.904,4.954 V 6.655 C -0.896,6.362 1.855,5.22 1.855,3.81 1.855,2.814 0.563,2.605 -0.52,2.605 c -1.949,0 -3.144,0.096 -4.529,0.208 -0.631,0.051 -1.289,0.105 -2.058,0.151 L -7.709,3 v -8.693 c -3.312,1.643 -5.6,5.052 -5.6,8.994 0,5.537 4.506,10.045 10.047,10.045 5.537,0 10.041,-4.508 10.041,-10.045 0,-4.851 -3.455,-8.909 -8.031,-9.843 V -9.469 C 4.932,-8.5 9.68,-3.151 9.68,3.301 c 0,7.136 -5.807,12.941 -12.942,12.941 -7.138,0 -12.945,-5.805 -12.945,-12.941 0,-6.578 4.939,-12.013 11.299,-12.826 v 8.755 h 0.004 V 0.125 C -4.164,0.085 -2.904,-0.056 0,0"
       clip-path="url(#a)"
       style="fill:#f9461c;fill-opacity:1;fill-rule:nonzero;stroke:none"
       transform="matrix(2.6923,0,0,-2.6923,848.939,76.207)"
       id="path10" />
    <path
       d="m 0,0 c -1.19,0.182 -2.591,0.182 -3.851,0.182 -1.33,0 -3.15,0 -4.2,-0.243 -2.31,-0.545 -2.381,-2.667 -2.381,-4.243 v -12.853 c 0,-2 1.12,-3.274 3.151,-3.455 1.26,-0.121 2.24,-0.121 3.85,-0.121 2.101,0 3.011,0 3.921,0.242 1.4,0.365 2.31,1.394 2.38,2.789 0.14,2.668 0.14,4.91 0.14,7.396 0,2.061 0,4.061 -0.07,6.85 C 2.87,-1.516 2.03,-0.303 0,0 m -10.432,-37.04 h -7.42 v 34.555 c 0,5.334 2.59,7.456 6.231,8.244 1.96,0.425 4.76,0.425 7.98,0.425 3.08,0 5.671,0 7.141,-0.304 4.131,-0.727 6.721,-3.758 6.861,-8.365 0.07,-2.911 0.07,-5.518 0.07,-7.821 0,-2.668 0,-4.849 -0.07,-7.215 -0.14,-5.759 -3.291,-9.214 -11.551,-9.214 h -9.242 z"
       clip-path="url(#b)"
       style="fill:#000000;fill-opacity:1;fill-rule:nonzero;stroke:none"
       transform="matrix(2.6923,0,0,-2.6923,173.063,127.627)"
       id="path11" />
    <path
       d="m 0,0 c 0,5.032 3.01,7.457 7.141,8.184 1.469,0.303 4.13,0.303 7.211,0.303 h 6.16 V 2.485 h -6.091 c -1.61,0 -2.59,0 -3.851,-0.121 C 8.54,2.182 7.42,0.909 7.42,-0.91 V -24.371 H 0 Z"
       clip-path="url(#c)"
       style="fill:#000000;fill-opacity:1;fill-rule:nonzero;stroke:none"
       transform="matrix(2.6923,0,0,-2.6923,218.098,133.992)"
       id="path12" />
    <path
       d="m 0,0 c 1.4,0.363 2.24,1.334 2.381,2.607 0.069,0.606 0.14,4.063 0.14,7.639 0,3.516 -0.071,7.031 -0.14,7.639 C 2.24,19.157 1.4,20.127 0,20.491 c -0.91,0.242 -2.24,0.242 -4.34,0.242 -2.1,0 -3.36,0 -4.27,-0.242 -1.401,-0.364 -2.241,-1.334 -2.381,-2.606 -0.07,-0.608 -0.14,-4.123 -0.14,-7.639 0,-3.576 0.07,-7.033 0.14,-7.639 0.14,-1.273 0.98,-2.244 2.381,-2.607 0.91,-0.242 2.17,-0.242 4.27,-0.242 2.1,0 3.43,0 4.34,0.242 m -12.181,-5.637 c -3.15,0.969 -5.741,3.092 -6.161,6.85 -0.139,1.334 -0.139,4.607 -0.139,9.033 0,4.486 0,7.699 0.139,9.033 0.42,3.758 3.011,5.88 6.161,6.85 1.96,0.606 4.55,0.606 7.841,0.606 3.22,0 5.95,0 7.91,-0.606 3.151,-0.97 5.742,-3.092 6.161,-6.85 0.14,-1.334 0.14,-4.547 0.14,-9.033 0,-4.426 0,-7.699 -0.14,-9.033 -0.419,-3.758 -3.01,-5.881 -6.161,-6.85 -1.96,-0.607 -4.62,-0.607 -7.91,-0.607 -3.221,0 -5.881,0 -7.841,0.607"
       clip-path="url(#d)"
       style="fill:#000000;fill-opacity:1;fill-rule:nonzero;stroke:none"
       transform="matrix(2.6923,0,0,-2.6923,329.668,182.958)"
       id="path13" />
    <path
       d="M 0,0 C -1.4,-0.364 -2.24,-1.334 -2.38,-2.606 -2.45,-3.214 -2.45,-3.94 -2.45,-4.669 v -22.006 h -7.421 v 21.279 c 0,1.395 0,2.85 0.14,4.184 0.42,3.758 3.01,5.88 6.161,6.85 1.96,0.606 4.62,0.606 7.841,0.606 3.08,0 5.81,0 7.77,-0.606 3.15,-0.97 5.741,-3.092 6.161,-6.85 0.14,-1.334 0.14,-2.789 0.14,-4.184 v -21.279 h -7.421 v 22.006 c 0,0.729 0,1.455 -0.069,2.063 C 10.711,-1.334 9.871,-0.364 8.471,0 7.561,0.242 6.301,0.242 4.2,0.242 2.101,0.242 0.91,0.242 0,0"
       clip-path="url(#e)"
       style="fill:#000000;fill-opacity:1;fill-rule:nonzero;stroke:none"
       transform="matrix(2.6923,0,0,-2.6923,399.773,127.79)"
       id="path14" />
    <path
       d="m 0,0 h -7.63 c -3.01,0 -5.74,-0.303 -5.74,-3.637 V -5.76 c 0,-2.06 0.84,-3.152 3.36,-3.455 1.05,-0.121 2.38,-0.121 3.571,-0.121 0.98,0 2.24,0 3.15,0.121 C -0.77,-8.912 0,-7.76 0,-5.881 Z m -3.43,17.581 c 7.772,0 10.852,-3.516 10.852,-9.093 V -6.789 c 0,-5.881 -3.781,-8.186 -9.871,-8.488 -1.26,-0.061 -2.801,-0.061 -4.2,-0.061 -1.47,0 -2.941,0 -4.271,0.061 -5.53,0.242 -9.871,2.365 -9.871,8.123 v 4.062 c 0,6.305 4.27,9.094 11.271,9.094 h 7.491 C -0.979,6.002 0,6.486 0,7.76 v 1.213 c 0,2.303 -2.449,2.606 -5.039,2.606 h -11.272 v 6.002 z"
       clip-path="url(#f)"
       style="fill:#000000;fill-opacity:1;fill-rule:nonzero;stroke:none"
       transform="matrix(2.6923,0,0,-2.6923,519.254,158.476)"
       id="path15" />
    <path
       d="m 0,0 v 23.219 c 0,2.364 -1.119,3.334 -3.15,3.637 -0.84,0.122 -1.75,0.122 -2.661,0.122 -0.98,0 -1.82,0 -2.73,-0.243 -1.4,-0.363 -2.24,-1.273 -2.381,-2.546 -0.068,-0.607 -0.068,-1.212 -0.068,-1.939 V 0 h -7.422 v 21.703 c 0,1.395 0,2.426 0.141,3.759 0.419,3.759 3.009,5.881 6.16,6.851 1.961,0.606 3.429,0.606 6.65,0.606 3.08,0 4.272,-0.121 5.881,-0.485 1.33,-0.303 2.451,-0.727 3.43,-1.516 0.701,0.789 1.82,1.213 3.15,1.516 1.611,0.364 2.801,0.485 5.881,0.485 3.221,0 4.691,0 6.65,-0.606 3.151,-0.97 5.742,-3.092 6.162,-6.851 0.139,-1.333 0.139,-2.364 0.139,-3.759 V 0 h -7.42 v 22.25 c 0,0.727 0,1.332 -0.07,1.939 -0.141,1.273 -0.981,2.183 -2.381,2.546 -0.91,0.243 -1.75,0.243 -2.729,0.243 -0.91,0 -1.82,0 -2.662,-0.122 C 8.541,26.553 7.42,25.583 7.42,23.219 V 0 Z"
       clip-path="url(#g)"
       style="fill:#000000;fill-opacity:1;fill-rule:nonzero;stroke:none"
       transform="matrix(2.6923,0,0,-2.6923,605.76,199.607)"
       id="path16" />
    <path
       d="m 329.88,223.875 h -7.42 v 32.858 h 7.42 z m 0,36.435 h -7.42 v 6.123 h 7.42 z"
       clip-path="url(#h)"
       style="fill:#000000;fill-opacity:1;fill-rule:nonzero;stroke:none"
       transform="matrix(2.6923,0,0,-2.6923,-173.073,802.343)"
       id="path17" />
    <path
       d="m 0,0 v -6.002 h -8.75 c -2.871,0 -6.301,0 -8.262,0.607 -4.551,1.456 -5.81,4.608 -5.81,9.7 v 13.943 c 0,4.607 2.801,7.578 7.14,8.305 1.471,0.243 4.061,0.303 7.141,0.303 h 8.402 V 20.854 H -8.4 c -1.61,0 -2.59,0 -3.85,-0.121 -2.031,-0.182 -3.15,-1.455 -3.15,-3.274 V 4.607 c 0,-1.939 0.279,-3.818 2.449,-4.365 C -11.971,0 -10.01,0 -8.611,0 Z"
       clip-path="url(#i)"
       style="fill:#000000;fill-opacity:1;fill-rule:nonzero;stroke:none"
       transform="matrix(2.6923,0,0,-2.6923,794.404,183.447)"
       id="path18" />
  </g>
</svg>
