<svg xmlns="http://www.w3.org/2000/svg" width="1000" height="259.828"><defs><clipPath id="a" clipPathUnits="userSpaceOnUse"><path d="M-379.606 230.29h500v-500h-500Z"/></clipPath><clipPath id="b" clipPathUnits="userSpaceOnUse"><path d="M-128.565 249.39h500v-500h-500Z"/></clipPath><clipPath id="c" clipPathUnits="userSpaceOnUse"><path d="M-145.293 251.754h500v-500h-500Z"/></clipPath><clipPath id="d" clipPathUnits="userSpaceOnUse"><path d="M-186.733 269.941h500v-500h-500Z"/></clipPath><clipPath id="e" clipPathUnits="userSpaceOnUse"><path d="M-212.773 249.45h500v-500h-500Z"/></clipPath><clipPath id="f" clipPathUnits="userSpaceOnUse"><path d="M-257.151 260.848h500v-500h-500Z"/></clipPath><clipPath id="g" clipPathUnits="userSpaceOnUse"><path d="M-289.282 276.125h500v-500h-500Z"/></clipPath><clipPath id="h" clipPathUnits="userSpaceOnUse"><path d="M0 500h500V0H0Z"/></clipPath><clipPath id="i" clipPathUnits="userSpaceOnUse"><path d="M-359.35 270.123h500v-500h-500Z"/></clipPath></defs><path d="M0 0c2.902.055 4.553 1.395 4.553 3.556 0 3.589-4.037 5.621-11.676 5.877l-.586.02V5.169l2.805-.215v1.701C-.896 6.362 1.855 5.22 1.855 3.81c0-.996-1.292-1.205-2.375-1.205-1.949 0-3.144.096-4.529.208-.631.051-1.289.105-2.058.151L-7.709 3v-8.693c-3.312 1.643-5.6 5.052-5.6 8.994 0 5.537 4.506 10.045 10.047 10.045 5.537 0 10.041-4.508 10.041-10.045 0-4.851-3.455-8.909-8.031-9.843v-2.927C4.932-8.5 9.68-3.151 9.68 3.301c0 7.136-5.807 12.941-12.942 12.941-7.138 0-12.945-5.805-12.945-12.941 0-6.578 4.939-12.013 11.299-12.826V-.77h.004v.895c.74-.04 2-.181 4.904-.125" clip-path="url(#a)" style="fill:#f9461c;fill-opacity:1;fill-rule:nonzero;stroke:none" transform="matrix(2.6923 0 0 -2.6923 848.939 76.207)"/><path d="M0 0c-1.19.182-2.591.182-3.851.182-1.33 0-3.15 0-4.2-.243-2.31-.545-2.381-2.667-2.381-4.243v-12.853c0-2 1.12-3.274 3.151-3.455 1.26-.121 2.24-.121 3.85-.121 2.101 0 3.011 0 3.921.242 1.4.365 2.31 1.394 2.38 2.789.14 2.668.14 4.91.14 7.396 0 2.061 0 4.061-.07 6.85C2.87-1.516 2.03-.303 0 0m-10.432-37.04h-7.42v34.555c0 5.334 2.59 7.456 6.231 8.244 1.96.425 4.76.425 7.98.425 3.08 0 5.671 0 7.141-.304 4.131-.727 6.721-3.758 6.861-8.365.07-2.911.07-5.518.07-7.821 0-2.668 0-4.849-.07-7.215-.14-5.759-3.291-9.214-11.551-9.214h-9.242z" clip-path="url(#b)" style="fill:#000;fill-opacity:1;fill-rule:nonzero;stroke:none" transform="matrix(2.6923 0 0 -2.6923 173.063 127.627)"/><path d="M0 0c0 5.032 3.01 7.457 7.141 8.184 1.469.303 4.13.303 7.211.303h6.16V2.485h-6.091c-1.61 0-2.59 0-3.851-.121C8.54 2.182 7.42.909 7.42-.91v-23.461H0Z" clip-path="url(#c)" style="fill:#000;fill-opacity:1;fill-rule:nonzero;stroke:none" transform="matrix(2.6923 0 0 -2.6923 218.098 133.992)"/><path d="M0 0c1.4.363 2.24 1.334 2.381 2.607.069.606.14 4.063.14 7.639 0 3.516-.071 7.031-.14 7.639C2.24 19.157 1.4 20.127 0 20.491c-.91.242-2.24.242-4.34.242s-3.36 0-4.27-.242c-1.401-.364-2.241-1.334-2.381-2.606-.07-.608-.14-4.123-.14-7.639 0-3.576.07-7.033.14-7.639.14-1.273.98-2.244 2.381-2.607.91-.242 2.17-.242 4.27-.242S-.91-.242 0 0m-12.181-5.637c-3.15.969-5.741 3.092-6.161 6.85-.139 1.334-.139 4.607-.139 9.033 0 4.486 0 7.699.139 9.033.42 3.758 3.011 5.88 6.161 6.85 1.96.606 4.55.606 7.841.606 3.22 0 5.95 0 7.91-.606 3.151-.97 5.742-3.092 6.161-6.85.14-1.334.14-4.547.14-9.033 0-4.426 0-7.699-.14-9.033-.419-3.758-3.01-5.881-6.161-6.85-1.96-.607-4.62-.607-7.91-.607-3.221 0-5.881 0-7.841.607" clip-path="url(#d)" style="fill:#000;fill-opacity:1;fill-rule:nonzero;stroke:none" transform="matrix(2.6923 0 0 -2.6923 329.668 182.958)"/><path d="M0 0c-1.4-.364-2.24-1.334-2.38-2.606-.07-.608-.07-1.334-.07-2.063v-22.006h-7.421v21.279c0 1.395 0 2.85.14 4.184.42 3.758 3.01 5.88 6.161 6.85 1.96.606 4.62.606 7.841.606 3.08 0 5.81 0 7.77-.606 3.15-.97 5.741-3.092 6.161-6.85.14-1.334.14-2.789.14-4.184v-21.279h-7.421v22.006c0 .729 0 1.455-.069 2.063C10.711-1.334 9.871-.364 8.471 0c-.91.242-2.17.242-4.271.242C2.101.242.91.242 0 0" clip-path="url(#e)" style="fill:#000;fill-opacity:1;fill-rule:nonzero;stroke:none" transform="matrix(2.6923 0 0 -2.6923 399.773 127.79)"/><path d="M0 0h-7.63c-3.01 0-5.74-.303-5.74-3.637V-5.76c0-2.06.84-3.152 3.36-3.455 1.05-.121 2.38-.121 3.571-.121.98 0 2.24 0 3.15.121C-.77-8.912 0-7.76 0-5.881Zm-3.43 17.581c7.772 0 10.852-3.516 10.852-9.093V-6.789c0-5.881-3.781-8.186-9.871-8.488-1.26-.061-2.801-.061-4.2-.061-1.47 0-2.941 0-4.271.061-5.53.242-9.871 2.365-9.871 8.123v4.062c0 6.305 4.27 9.094 11.271 9.094h7.491C-.979 6.002 0 6.486 0 7.76v1.213c0 2.303-2.449 2.606-5.039 2.606h-11.272v6.002z" clip-path="url(#f)" style="fill:#000;fill-opacity:1;fill-rule:nonzero;stroke:none" transform="matrix(2.6923 0 0 -2.6923 519.254 158.476)"/><path d="M0 0v23.219c0 2.364-1.119 3.334-3.15 3.637-.84.122-1.75.122-2.661.122-.98 0-1.82 0-2.73-.243-1.4-.363-2.24-1.273-2.381-2.546-.068-.607-.068-1.212-.068-1.939V0h-7.422v21.703c0 1.395 0 2.426.141 3.759.419 3.759 3.009 5.881 6.16 6.851 1.961.606 3.429.606 6.65.606 3.08 0 4.272-.121 5.881-.485 1.33-.303 2.451-.727 3.43-1.516.701.789 1.82 1.213 3.15 1.516 1.611.364 2.801.485 5.881.485 3.221 0 4.691 0 6.65-.606 3.151-.97 5.742-3.092 6.162-6.851.139-1.333.139-2.364.139-3.759V0h-7.42v22.25c0 .727 0 1.332-.07 1.939-.141 1.273-.981 2.183-2.381 2.546-.91.243-1.75.243-2.729.243-.91 0-1.82 0-2.662-.122-2.029-.303-3.15-1.273-3.15-3.637V0Z" clip-path="url(#g)" style="fill:#000;fill-opacity:1;fill-rule:nonzero;stroke:none" transform="matrix(2.6923 0 0 -2.6923 605.76 199.607)"/><path d="M329.88 223.875h-7.42v32.858h7.42zm0 36.435h-7.42v6.123h7.42z" clip-path="url(#h)" style="fill:#000;fill-opacity:1;fill-rule:nonzero;stroke:none" transform="matrix(2.6923 0 0 -2.6923 -173.073 802.343)"/><path d="M0 0v-6.002h-8.75c-2.871 0-6.301 0-8.262.607-4.551 1.456-5.81 4.608-5.81 9.7v13.943c0 4.607 2.801 7.578 7.14 8.305 1.471.243 4.061.303 7.141.303h8.402v-6.002H-8.4c-1.61 0-2.59 0-3.85-.121-2.031-.182-3.15-1.455-3.15-3.274V4.607c0-1.939.279-3.818 2.449-4.365C-11.971 0-10.01 0-8.611 0Z" clip-path="url(#i)" style="fill:#000;fill-opacity:1;fill-rule:nonzero;stroke:none" transform="matrix(2.6923 0 0 -2.6923 794.404 183.447)"/></svg>