<svg fill-rule="evenodd" height="90" width="729" xmlns="http://www.w3.org/2000/svg"><path d="m0 0h728v90h-728z" fill="#f9461c"/><path d="m474.446 0h238.158v90h-238.158l28.567-45z" fill="#dc2f06"/><path d="m490.842 0h238.158v90h-238.158l28.567-45z" fill="#c92d08"/><g fill="#fff"><path d="m67.739 52.82c6.757-.126 10.602-3.246 10.602-8.278 0-8.36-9.4-13.091-27.188-13.685l-1.365-.049v9.976l6.532.503v-3.961c9.333.682 15.741 3.341 15.741 6.622 0 2.319-3.011 2.806-5.53 2.806-4.541 0-7.323-.224-10.548-.484l-4.792-.352-1.402-.084v20.242c-7.712-3.826-13.04-11.764-13.04-20.941 0-12.896 10.492-23.39 23.395-23.39 12.893 0 23.381 10.495 23.381 23.39 0 11.296-8.045 20.743-18.701 22.918v6.818c14.4-2.259 25.456-14.714 25.456-29.736-.001-16.618-13.523-30.135-30.137-30.135-16.621 0-30.143 13.517-30.143 30.136 0 15.317 11.501 27.973 26.31 29.864v-20.387h.009v-2.084c1.723.093 4.657.424 11.419.291"/><path d="m126.09 38c.182 0 .294-.091.336-.273l2.625-10.71c.014-.042.035-.063.063-.063s.049.021.063.063l2.709 10.71c.042.182.154.273.336.273h1.449c.182 0 .294-.091.336-.273l3.759-14.07c.028-.112.018-.2-.031-.262s-.13-.095-.242-.095h-1.407c-.182 0-.294.091-.336.273l-2.73 10.332c-.014.042-.035.063-.063.063s-.049-.021-.063-.063l-2.709-10.332c-.042-.182-.154-.273-.336-.273h-1.491c-.182 0-.294.091-.336.273l-2.562 10.332c-.014.042-.035.063-.063.063s-.049-.021-.063-.063l-2.73-10.332c-.042-.182-.154-.273-.336-.273h-1.512c-.182 0-.273.077-.273.231 0 .056.007.098.021.126l3.864 14.07c.042.182.161.273.357.273zm16.905.168c1.022 0 1.911-.262 2.667-.788s1.288-1.256 1.596-2.194c.252-.742.378-1.603.378-2.583 0-.966-.126-1.806-.378-2.52-.322-.91-.858-1.627-1.607-2.152s-1.627-.787-2.636-.787c-1.064 0-1.981.262-2.751.787a4.13 4.13 0 0 0 -1.617 2.174c-.238.686-.357 1.526-.357 2.52 0 .952.126 1.806.378 2.562.308.938.843 1.669 1.606 2.194s1.669.788 2.72.788zm0-1.743c-.602 0-1.117-.157-1.543-.472s-.725-.76-.893-1.334c-.154-.504-.231-1.162-.231-1.974s.077-1.463.231-1.953c.182-.574.483-1.018.903-1.334s.917-.473 1.491-.473c.602 0 1.113.158 1.533.473s.721.759.903 1.334c.14.518.21 1.169.21 1.953s-.077 1.442-.231 1.974c-.182.574-.483 1.019-.903 1.334s-.91.472-1.47.472zm8.967 1.575c.098 0 .175-.028.231-.084s.084-.133.084-.231v-6.027c0-.686.214-1.242.641-1.67s.97-.654 1.627-.682a1.74 1.74 0 0 1 .315-.021c.266 0 .504.035.714.105.042.014.098.021.168.021.126 0 .196-.07.21-.21l.294-1.365c.042-.182-.014-.315-.168-.399-.336-.154-.714-.231-1.134-.231-1.078 0-1.932.476-2.562 1.428-.028.042-.053.059-.073.052s-.032-.038-.032-.095v-.966c0-.098-.028-.175-.084-.231s-.133-.084-.231-.084h-1.386c-.098 0-.175.028-.231.084s-.084.133-.084.231v10.059c0 .098.028.175.084.231s.133.084.231.084h1.386zm9.702.168c.49 0 .942-.094 1.355-.283s.774-.459 1.082-.809c.028-.028.056-.035.084-.021s.042.042.042.084v.546c0 .098.028.175.084.231s.133.084.231.084h1.386c.098 0 .175-.028.231-.084s.084-.133.084-.231v-14.07c0-.098-.028-.175-.084-.231s-.133-.084-.231-.084h-1.386c-.098 0-.175.028-.231.084s-.084.133-.084.231v4.557c0 .042-.014.066-.042.073s-.056-.003-.084-.032c-.308-.35-.668-.616-1.082-.798s-.864-.273-1.355-.273c-1.036 0-1.893.259-2.572.777s-1.166 1.239-1.459 2.163c-.21.672-.315 1.519-.315 2.541 0 1.092.126 1.988.378 2.688.308.91.794 1.614 1.46 2.111s1.501.745 2.509.745zm.21-1.743c-.938 0-1.61-.385-2.016-1.155-.35-.658-.525-1.526-.525-2.604 0-1.148.224-2.072.672-2.772a2.09 2.09 0 0 1 1.869-1.008c.784 0 1.379.357 1.785 1.071.364.644.546 1.54.546 2.688s-.168 2.03-.504 2.646c-.42.756-1.029 1.134-1.827 1.134zm9.156 1.575c.098 0 .175-.028.231-.084s.084-.133.084-.231v-5.838c0-.07.035-.105.105-.105h3.675c.868 0 1.635-.175 2.299-.525s1.18-.84 1.543-1.47.546-1.365.546-2.205-.179-1.582-.536-2.226a3.76 3.76 0 0 0 -1.512-1.501c-.651-.357-1.404-.535-2.257-.535h-5.565c-.098 0-.175.028-.231.084s-.084.133-.084.231v14.091c0 .098.028.175.084.231s.133.084.231.084h1.386zm3.906-7.896h-3.486c-.07 0-.105-.035-.105-.105v-4.872c0-.07.035-.105.105-.105h3.486c.77 0 1.389.235 1.858.704s.703 1.088.703 1.858c0 .756-.234 1.365-.703 1.827s-1.089.693-1.858.693zm8.421 7.896c.098 0 .175-.028.231-.084s.084-.133.084-.231v-6.027c0-.686.214-1.242.641-1.67s.97-.654 1.627-.682a1.74 1.74 0 0 1 .315-.021c.266 0 .504.035.714.105.042.014.098.021.168.021.126 0 .196-.07.21-.21l.294-1.365c.042-.182-.014-.315-.168-.399-.336-.154-.714-.231-1.134-.231-1.078 0-1.932.476-2.562 1.428-.028.042-.052.059-.073.052s-.031-.038-.031-.095v-.966c0-.098-.028-.175-.084-.231s-.133-.084-.231-.084h-1.386c-.098 0-.175.028-.231.084s-.084.133-.084.231v10.059c0 .098.028.175.084.231s.133.084.231.084h1.386zm10.227.168c.924 0 1.732-.196 2.425-.588a4.1 4.1 0 0 0 1.607-1.617l.042-.168c0-.112-.056-.203-.168-.273l-.861-.525c-.056-.042-.119-.063-.189-.063-.084 0-.161.063-.231.189-.49.868-1.302 1.309-2.436 1.323-.686 0-1.26-.161-1.722-.483s-.77-.763-.924-1.323c-.07-.224-.119-.602-.147-1.134 0-.07.035-.105.105-.105h6.636c.21 0 .315-.105.315-.315l-.147-1.89c-.21-1.316-.665-2.321-1.365-3.014s-1.715-1.04-3.045-1.04c-1.078 0-1.995.28-2.751.84s-1.26 1.323-1.512 2.289c-.154.532-.231 1.309-.231 2.331 0 1.148.175 2.149.525 3.003.35.826.868 1.459 1.554 1.901s1.526.661 2.52.661zm2.289-6.342h-4.767c-.07 0-.105-.035-.105-.105.028-.476.091-.868.189-1.176.14-.518.403-.924.787-1.218s.886-.441 1.502-.441 1.13.165 1.543.494.689.767.829 1.313c.056.224.098.567.126 1.029 0 .07-.035.105-.105.105zm8.463 6.3c1.26 0 2.264-.28 3.013-.84s1.124-1.316 1.124-2.268c0-.686-.189-1.242-.567-1.669a3.61 3.61 0 0 0 -1.376-.966c-.539-.217-1.214-.437-2.026-.662-.826-.238-1.424-.462-1.796-.672s-.556-.518-.556-.924.193-.728.578-.966.886-.357 1.501-.357c.686 0 1.228.137 1.627.41s.599.613.599 1.018v.126c0 .042.028.077.084.105s.133.042.231.042h1.26c.098 0 .175-.024.231-.073s.084-.116.084-.2a2.58 2.58 0 0 0 -.504-1.554c-.336-.462-.815-.822-1.438-1.081s-1.341-.389-2.153-.389c-1.218 0-2.195.277-2.93.829a2.65 2.65 0 0 0 -1.102 2.236c0 .672.185 1.222.556 1.649s.826.756 1.365.987 1.207.459 2.005.683c.812.224 1.4.438 1.764.64s.546.508.546.913c0 .42-.196.767-.588 1.04s-.91.41-1.554.41-1.179-.147-1.607-.441-.64-.637-.64-1.029v-.168c0-.042-.028-.077-.084-.105s-.133-.042-.231-.042h-1.302c-.098 0-.175.028-.231.084s-.084.133-.084.231v.126c0 .532.175 1.018.525 1.459s.844.788 1.481 1.039 1.368.378 2.195.378zm9.996 0c1.26 0 2.264-.28 3.013-.84s1.124-1.316 1.124-2.268c0-.686-.189-1.242-.567-1.669a3.61 3.61 0 0 0 -1.375-.966c-.539-.217-1.214-.437-2.026-.662-.826-.238-1.424-.462-1.796-.672s-.556-.518-.556-.924.192-.728.578-.966.885-.357 1.501-.357c.686 0 1.228.137 1.627.41s.599.613.599 1.018v.126c0 .042.028.077.084.105s.133.042.231.042h1.26c.098 0 .175-.024.231-.073s.084-.116.084-.2a2.58 2.58 0 0 0 -.504-1.554c-.336-.462-.815-.822-1.439-1.081s-1.34-.389-2.153-.389c-1.218 0-2.194.277-2.929.829a2.65 2.65 0 0 0 -1.102 2.236c0 .672.185 1.222.556 1.649s.826.756 1.365.987 1.208.459 2.006.683c.812.224 1.4.438 1.764.64s.546.508.546.913c0 .42-.196.767-.588 1.04s-.91.41-1.554.41-1.18-.147-1.607-.441-.641-.637-.641-1.029v-.168c0-.042-.028-.077-.084-.105s-.133-.042-.231-.042h-1.302c-.098 0-.175.028-.231.084s-.084.133-.084.231v.126c0 .532.175 1.018.525 1.459s.843.788 1.48 1.039 1.369.378 2.195.378zm15.078.042c1.022 0 1.911-.262 2.667-.788s1.288-1.256 1.596-2.194c.252-.742.378-1.603.378-2.583 0-.966-.126-1.806-.378-2.52-.322-.91-.858-1.627-1.607-2.152s-1.627-.787-2.635-.787c-1.064 0-1.981.262-2.751.787a4.13 4.13 0 0 0 -1.617 2.174c-.238.686-.357 1.526-.357 2.52 0 .952.126 1.806.378 2.562.308.938.844 1.669 1.606 2.194s1.67.788 2.72.788zm0-1.743c-.602 0-1.117-.157-1.543-.472s-.725-.76-.893-1.334c-.154-.504-.231-1.162-.231-1.974s.077-1.463.231-1.953c.182-.574.483-1.018.903-1.334s.917-.473 1.491-.473c.602 0 1.113.158 1.533.473s.721.759.903 1.334c.14.518.21 1.169.21 1.953s-.077 1.442-.231 1.974c-.182.574-.483 1.019-.903 1.334s-.91.472-1.47.472zm9.66 1.575c.098 0 .175-.028.231-.084s.084-.133.084-.231v-8.421c0-.07.035-.105.105-.105h2.079c.098 0 .175-.028.231-.084s.084-.133.084-.231v-1.218c0-.098-.028-.175-.084-.231s-.133-.084-.231-.084h-2.079c-.07 0-.105-.035-.105-.105v-.231c0-.742.126-1.246.378-1.512s.728-.399 1.428-.399h.399c.098 0 .175-.028.231-.084s.084-.133.084-.231v-1.134c0-.098-.028-.175-.084-.231s-.133-.084-.231-.084h-.609c-.938 0-1.666.108-2.184.325a1.99 1.99 0 0 0 -1.102 1.082c-.217.504-.326 1.218-.326 2.142v.357c0 .07-.035.105-.105.105h-1.281c-.098 0-.175.028-.231.084s-.084.133-.084.231v1.218c0 .098.028.175.084.231s.133.084.231.084h1.281c.07 0 .105.035.105.105v8.421c0 .098.028.175.084.231s.133.084.231.084zm7.707 0c.098 0 .175-.028.231-.084s.084-.133.084-.231v-8.421c0-.07.035-.105.105-.105h2.079c.098 0 .175-.028.231-.084s.084-.133.084-.231v-1.218c0-.098-.028-.175-.084-.231s-.133-.084-.231-.084h-2.079c-.07 0-.105-.035-.105-.105v-.231c0-.742.126-1.246.378-1.512s.728-.399 1.428-.399h.399c.098 0 .175-.028.231-.084s.084-.133.084-.231v-1.134c0-.098-.028-.175-.084-.231s-.133-.084-.231-.084h-.609c-.938 0-1.666.108-2.184.325a1.99 1.99 0 0 0 -1.102 1.082c-.217.504-.326 1.218-.326 2.142v.357c0 .07-.035.105-.105.105h-1.281c-.098 0-.175.028-.231.084s-.084.133-.084.231v1.218c0 .098.028.175.084.231s.133.084.231.084h1.281c.07 0 .105.035.105.105v8.421c0 .098.028.175.084.231s.133.084.231.084zm8.568.168c.924 0 1.732-.196 2.426-.588a4.1 4.1 0 0 0 1.606-1.617l.042-.168c0-.112-.056-.203-.168-.273l-.861-.525c-.056-.042-.119-.063-.189-.063-.084 0-.161.063-.231.189-.49.868-1.302 1.309-2.436 1.323-.686 0-1.26-.161-1.722-.483s-.77-.763-.924-1.323c-.07-.224-.119-.602-.147-1.134 0-.07.035-.105.105-.105h6.636c.21 0 .315-.105.315-.315l-.147-1.89c-.21-1.316-.665-2.321-1.365-3.014s-1.715-1.04-3.045-1.04c-1.078 0-1.995.28-2.751.84s-1.26 1.323-1.512 2.289c-.154.532-.231 1.309-.231 2.331 0 1.148.175 2.149.525 3.003.35.826.868 1.459 1.554 1.901s1.526.661 2.52.661zm2.289-6.342h-4.767c-.07 0-.105-.035-.105-.105.028-.476.091-.868.189-1.176.14-.518.403-.924.787-1.218s.886-.441 1.502-.441 1.13.165 1.543.494.69.767.829 1.313c.056.224.098.567.126 1.029 0 .07-.035.105-.105.105zm6.405 6.174c.098 0 .175-.028.231-.084s.084-.133.084-.231v-6.027c0-.686.214-1.242.641-1.67s.969-.654 1.627-.682a1.74 1.74 0 0 1 .315-.021c.266 0 .504.035.714.105.042.014.098.021.168.021.126 0 .196-.07.21-.21l.294-1.365c.042-.182-.014-.315-.168-.399-.336-.154-.714-.231-1.134-.231-1.078 0-1.932.476-2.562 1.428-.028.042-.053.059-.074.052s-.031-.038-.031-.095v-.966c0-.098-.028-.175-.084-.231s-.133-.084-.231-.084h-1.386c-.098 0-.175.028-.231.084s-.084.133-.084.231v10.059c0 .098.028.175.084.231s.133.084.231.084h1.386zm9.744.126c1.26 0 2.264-.28 3.013-.84s1.124-1.316 1.124-2.268c0-.686-.189-1.242-.567-1.669a3.61 3.61 0 0 0 -1.375-.966c-.539-.217-1.215-.437-2.026-.662-.826-.238-1.425-.462-1.796-.672s-.557-.518-.557-.924.192-.728.577-.966.886-.357 1.502-.357c.686 0 1.228.137 1.627.41s.599.613.599 1.018v.126c0 .042.028.077.084.105s.133.042.231.042h1.26c.098 0 .175-.024.231-.073s.084-.116.084-.2a2.58 2.58 0 0 0 -.504-1.554c-.336-.462-.816-.822-1.439-1.081s-1.34-.389-2.152-.389c-1.218 0-2.195.277-2.93.829a2.65 2.65 0 0 0 -1.103 2.236c0 .672.186 1.222.557 1.649s.826.756 1.365.987 1.207.459 2.005.683c.812.224 1.4.438 1.764.64s.546.508.546.913c0 .42-.196.767-.588 1.04s-.91.41-1.554.41-1.18-.147-1.606-.441-.641-.637-.641-1.029v-.168c0-.042-.028-.077-.084-.105s-.133-.042-.231-.042h-1.302c-.098 0-.175.028-.231.084s-.084.133-.084.231v.126c0 .532.175 1.018.525 1.459s.844.788 1.481 1.039 1.368.378 2.195.378zm15.078.042c1.022 0 1.911-.262 2.667-.788s1.288-1.256 1.596-2.194c.252-.742.378-1.603.378-2.583 0-.966-.126-1.806-.378-2.52-.322-.91-.858-1.627-1.607-2.152s-1.627-.787-2.635-.787c-1.064 0-1.981.262-2.751.787a4.13 4.13 0 0 0 -1.617 2.174c-.238.686-.357 1.526-.357 2.52 0 .952.126 1.806.378 2.562.308.938.843 1.669 1.606 2.194s1.669.788 2.719.788zm0-1.743c-.602 0-1.116-.157-1.543-.472s-.724-.76-.892-1.334c-.154-.504-.231-1.162-.231-1.974s.077-1.463.231-1.953c.182-.574.483-1.018.903-1.334s.917-.473 1.491-.473c.602 0 1.113.158 1.533.473s.721.759.903 1.334c.14.518.21 1.169.21 1.953s-.077 1.442-.231 1.974c-.182.574-.483 1.019-.903 1.334s-.91.472-1.47.472zm9.093 5.586c.098 0 .175-.028.231-.084s.084-.133.084-.231v-4.557c0-.042.014-.067.042-.074s.056.004.084.032c.308.35.668.616 1.082.798s.865.273 1.355.273c1.036 0 1.893-.259 2.572-.777s1.166-1.239 1.459-2.163c.21-.672.315-1.519.315-2.541 0-1.092-.126-1.988-.378-2.688-.308-.91-.795-1.613-1.459-2.11s-1.502-.745-2.51-.745c-.49 0-.942.095-1.355.284s-.774.459-1.082.808c-.028.028-.056.035-.084.021s-.042-.042-.042-.084v-.546c0-.098-.028-.175-.084-.231s-.133-.084-.231-.084h-1.386c-.098 0-.175.028-.231.084s-.084.133-.084.231v14.07c0 .098.028.175.084.231s.133.084.231.084h1.386zm2.667-5.586c-.784 0-1.379-.357-1.785-1.071-.364-.644-.546-1.54-.546-2.688 0-1.162.168-2.044.504-2.646.42-.756 1.029-1.134 1.827-1.134.938 0 1.61.385 2.016 1.155.35.658.525 1.526.525 2.604 0 1.148-.224 2.072-.672 2.772a2.09 2.09 0 0 1 -1.869 1.008zm8.925 5.586c.098 0 .175-.028.231-.084s.084-.133.084-.231v-4.557c0-.042.014-.067.042-.074s.056.004.084.032c.308.35.668.616 1.081.798s.865.273 1.355.273c1.036 0 1.894-.259 2.572-.777s1.166-1.239 1.459-2.163c.21-.672.315-1.519.315-2.541 0-1.092-.126-1.988-.378-2.688-.308-.91-.794-1.613-1.459-2.11s-1.502-.745-2.51-.745c-.49 0-.942.095-1.355.284s-.773.459-1.081.808c-.028.028-.056.035-.084.021s-.042-.042-.042-.084v-.546c0-.098-.028-.175-.084-.231s-.133-.084-.231-.084h-1.386c-.098 0-.175.028-.231.084s-.084.133-.084.231v14.07c0 .098.028.175.084.231s.133.084.231.084h1.386zm2.667-5.586c-.784 0-1.379-.357-1.785-1.071-.364-.644-.546-1.54-.546-2.688 0-1.162.168-2.044.504-2.646.42-.756 1.029-1.134 1.827-1.134.938 0 1.61.385 2.016 1.155.35.658.525 1.526.525 2.604 0 1.148-.224 2.072-.672 2.772a2.09 2.09 0 0 1 -1.869 1.008zm11.487 1.743c1.022 0 1.911-.262 2.667-.788s1.288-1.256 1.596-2.194c.252-.742.378-1.603.378-2.583 0-.966-.126-1.806-.378-2.52-.322-.91-.858-1.627-1.607-2.152s-1.627-.787-2.635-.787c-1.064 0-1.981.262-2.751.787a4.13 4.13 0 0 0 -1.617 2.174c-.238.686-.357 1.526-.357 2.52 0 .952.126 1.806.378 2.562.308.938.843 1.669 1.606 2.194s1.669.788 2.719.788zm0-1.743c-.602 0-1.116-.157-1.543-.472s-.724-.76-.892-1.334c-.154-.504-.231-1.162-.231-1.974s.077-1.463.231-1.953c.182-.574.483-1.018.903-1.334s.917-.473 1.491-.473c.602 0 1.113.158 1.533.473s.721.759.903 1.334c.14.518.21 1.169.21 1.953s-.077 1.442-.231 1.974c-.182.574-.483 1.019-.903 1.334s-.91.472-1.47.472zm8.967 1.575c.098 0 .175-.028.231-.084s.084-.133.084-.231v-6.027c0-.686.213-1.242.64-1.67s.969-.654 1.627-.682a1.74 1.74 0 0 1 .315-.021c.266 0 .504.035.714.105.042.014.098.021.168.021.126 0 .196-.07.21-.21l.294-1.365c.042-.182-.014-.315-.168-.399-.336-.154-.714-.231-1.134-.231-1.078 0-1.932.476-2.562 1.428-.028.042-.053.059-.073.052s-.031-.038-.031-.095v-.966c0-.098-.028-.175-.084-.231s-.133-.084-.231-.084h-1.386c-.098 0-.175.028-.231.084s-.084.133-.084.231v10.059c0 .098.028.175.084.231s.133.084.231.084h1.386zm10.311-.021.861-.021c.21-.028.315-.14.315-.336v-1.092c0-.098-.028-.175-.084-.231s-.133-.084-.231-.084h-.504c-.574 0-.99-.126-1.249-.378s-.389-.679-.389-1.281v-5.481c0-.07.035-.105.105-.105h2.142c.098 0 .175-.028.231-.084s.084-.133.084-.231v-1.029c0-.098-.028-.175-.084-.231s-.133-.084-.231-.084h-2.142c-.07 0-.105-.035-.105-.105v-2.352c0-.098-.028-.175-.084-.231s-.133-.084-.231-.084h-1.302c-.098 0-.175.028-.231.084s-.084.133-.084.231v2.352c0 .07-.035.105-.105.105h-1.155c-.098 0-.175.028-.231.084s-.084.133-.084.231v1.029c0 .098.028.175.084.231s.133.084.231.084h1.155c.07 0 .105.035.105.105v6.216c0 1.036.266 1.743.798 2.121s1.337.567 2.415.567zm7.434.168c1.148 0 2.002-.378 2.562-1.134.028-.028.056-.038.084-.032s.042.032.042.074v.63c0 .098.028.175.084.231s.133.084.231.084h1.365c.098 0 .175-.028.231-.084s.084-.133.084-.231v-10.059c0-.098-.028-.175-.084-.231s-.133-.084-.231-.084h-1.365c-.098 0-.175.028-.231.084s-.084.133-.084.231v6.426c0 .714-.21 1.285-.63 1.712s-.98.641-1.68.641-1.243-.21-1.627-.63-.578-.994-.578-1.722v-6.426c0-.098-.028-.175-.084-.231s-.133-.084-.231-.084h-1.365c-.098 0-.175.028-.231.084s-.084.133-.084.231v7.056c0 .742.175 1.372.525 1.89s.815.91 1.397 1.176a4.51 4.51 0 0 0 1.9.399zm9.324-.147c.098 0 .175-.028.231-.084s.084-.133.084-.231v-6.804c.07-.602.312-1.082.725-1.439s.921-.535 1.522-.535c.672 0 1.211.217 1.617.651s.609 1.001.609 1.701v6.426c0 .098.028.175.084.231s.133.084.231.084h1.386c.098 0 .175-.028.231-.084s.084-.133.084-.231v-6.825c0-1.134-.336-2.033-1.008-2.698s-1.582-.997-2.73-.997c-1.176 0-2.058.371-2.646 1.113-.014.028-.035.035-.063.021s-.042-.042-.042-.084v-.588c0-.098-.028-.175-.084-.231s-.133-.084-.231-.084h-1.386c-.098 0-.175.028-.231.084s-.084.133-.084.231v10.059c0 .098.028.175.084.231s.133.084.231.084h1.386zm10.857-12.285c.406 0 .735-.122.987-.367s.378-.564.378-.956-.126-.71-.378-.956-.581-.367-.987-.367-.739.123-.998.367-.389.564-.389.956.13.71.389.956.591.367.998.367zm.693 12.285c.098 0 .175-.028.231-.084s.084-.133.084-.231v-10.059c0-.098-.028-.175-.084-.231s-.133-.084-.231-.084h-1.386c-.098 0-.175.028-.231.084s-.084.133-.084.231v10.059c0 .098.028.175.084.231s.133.084.231.084zm7.392-.021.861-.021c.21-.028.315-.14.315-.336v-1.092c0-.098-.028-.175-.084-.231s-.133-.084-.231-.084h-.504c-.574 0-.99-.126-1.25-.378s-.389-.679-.389-1.281v-5.481c0-.07.035-.105.105-.105h2.142c.098 0 .175-.028.231-.084s.084-.133.084-.231v-1.029c0-.098-.028-.175-.084-.231s-.133-.084-.231-.084h-2.142c-.07 0-.105-.035-.105-.105v-2.352c0-.098-.028-.175-.084-.231s-.133-.084-.231-.084h-1.302c-.098 0-.175.028-.231.084s-.084.133-.084.231v2.352c0 .07-.035.105-.105.105h-1.155c-.098 0-.175.028-.231.084s-.084.133-.084.231v1.029c0 .098.028.175.084.231s.133.084.231.084h1.155c.07 0 .105.035.105.105v6.216c0 1.036.266 1.743.798 2.121s1.337.567 2.415.567zm4.935-12.264c.406 0 .735-.122.987-.367s.378-.564.378-.956-.126-.71-.378-.956-.581-.367-.987-.367-.738.123-.998.367-.389.564-.389.956.13.71.389.956.591.367.998.367zm.693 12.285c.098 0 .175-.028.231-.084s.084-.133.084-.231v-10.059c0-.098-.028-.175-.084-.231s-.133-.084-.231-.084h-1.386c-.098 0-.175.028-.231.084s-.084.133-.084.231v10.059c0 .098.028.175.084.231s.133.084.231.084zm7.707.168c.924 0 1.733-.196 2.425-.588a4.1 4.1 0 0 0 1.607-1.617l.042-.168c0-.112-.056-.203-.168-.273l-.861-.525c-.056-.042-.119-.063-.189-.063-.084 0-.161.063-.231.189-.49.868-1.302 1.309-2.436 1.323-.686 0-1.26-.161-1.722-.483s-.77-.763-.924-1.323c-.07-.224-.119-.602-.147-1.134 0-.07.035-.105.105-.105h6.636c.21 0 .315-.105.315-.315l-.147-1.89c-.21-1.316-.665-2.321-1.365-3.014s-1.715-1.04-3.045-1.04c-1.078 0-1.995.28-2.751.84s-1.26 1.323-1.512 2.289c-.154.532-.231 1.309-.231 2.331 0 1.148.175 2.149.525 3.003.35.826.868 1.459 1.554 1.901s1.526.661 2.52.661zm2.289-6.342h-4.767c-.07 0-.105-.035-.105-.105.028-.476.091-.868.189-1.176.14-.518.402-.924.787-1.218s.885-.441 1.502-.441 1.13.165 1.543.494.69.767.829 1.313c.056.224.098.567.126 1.029 0 .07-.035.105-.105.105zm8.463 6.3c1.26 0 2.264-.28 3.014-.84s1.123-1.316 1.123-2.268c0-.686-.189-1.242-.567-1.669a3.61 3.61 0 0 0 -1.375-.966c-.539-.217-1.214-.437-2.026-.662-.826-.238-1.424-.462-1.796-.672s-.556-.518-.556-.924.192-.728.577-.966.885-.357 1.502-.357c.686 0 1.228.137 1.627.41s.599.613.599 1.018v.126c0 .042.028.077.084.105s.133.042.231.042h1.26c.098 0 .175-.024.231-.073s.084-.116.084-.2a2.58 2.58 0 0 0 -.504-1.554c-.336-.462-.815-.822-1.438-1.081s-1.341-.389-2.153-.389c-1.218 0-2.195.277-2.929.829a2.65 2.65 0 0 0 -1.103 2.236c0 .672.185 1.222.556 1.649s.826.756 1.365.987 1.208.459 2.006.683c.812.224 1.4.438 1.764.64s.546.508.546.913c0 .42-.196.767-.588 1.04s-.91.41-1.554.41-1.18-.147-1.607-.441-.64-.637-.64-1.029v-.168c0-.042-.028-.077-.084-.105s-.133-.042-.231-.042h-1.302c-.098 0-.175.028-.231.084s-.084.133-.084.231v.126c0 .532.175 1.018.525 1.459s.844.788 1.481 1.039 1.369.378 2.195.378zm7.833-.126a1.5 1.5 0 0 0 1.092-.431 1.4 1.4 0 0 0 .441-1.039c0-.392-.157-.728-.472-1.008s-.668-.42-1.06-.42-.742.14-1.05.42-.462.616-.462 1.008c0 .42.143.77.43 1.05s.647.42 1.082.42zm-287.301 27c.098 0 .175-.028.231-.084s.084-.133.084-.231v-5.838c0-.07.035-.105.105-.105h3.675c.868 0 1.635-.175 2.299-.525s1.18-.84 1.544-1.47.546-1.365.546-2.205-.179-1.582-.536-2.226a3.76 3.76 0 0 0 -1.512-1.501c-.651-.357-1.403-.535-2.257-.535h-5.565c-.098 0-.175.028-.231.084s-.084.133-.084.231v14.091c0 .098.028.175.084.231s.133.084.231.084h1.386zm3.906-7.896h-3.486c-.07 0-.105-.035-.105-.105v-4.872c0-.07.035-.105.105-.105h3.486c.77 0 1.389.235 1.858.703s.703 1.089.703 1.859c0 .756-.234 1.365-.703 1.827s-1.088.693-1.858.693zm8.421 7.896c.098 0 .175-.028.231-.084s.084-.133.084-.231v-6.027c0-.686.214-1.242.641-1.669s.97-.654 1.627-.683a1.74 1.74 0 0 1 .315-.021c.266 0 .504.035.714.105.042.014.098.021.168.021.126 0 .196-.07.21-.21l.294-1.365c.042-.182-.014-.315-.168-.399-.336-.154-.714-.231-1.134-.231-1.078 0-1.932.476-2.562 1.428-.028.042-.053.059-.074.053s-.031-.038-.031-.095v-.966c0-.098-.028-.175-.084-.231s-.133-.084-.231-.084h-1.386c-.098 0-.175.028-.231.084s-.084.133-.084.231v10.059c0 .098.028.175.084.231s.133.084.231.084zm10.311.168c1.022 0 1.911-.263 2.667-.788s1.288-1.256 1.596-2.194c.252-.742.378-1.603.378-2.583 0-.966-.126-1.806-.378-2.52-.322-.91-.858-1.627-1.607-2.152s-1.627-.788-2.636-.788c-1.064 0-1.981.263-2.751.788a4.13 4.13 0 0 0 -1.617 2.173c-.238.686-.357 1.526-.357 2.52 0 .952.126 1.806.378 2.562.308.938.843 1.669 1.606 2.194s1.669.788 2.72.788zm0-1.743c-.602 0-1.117-.157-1.543-.472s-.725-.76-.893-1.334c-.154-.504-.231-1.162-.231-1.974s.077-1.463.231-1.953c.182-.574.483-1.019.903-1.334s.917-.472 1.491-.472c.602 0 1.113.157 1.533.472s.721.76.903 1.334c.14.518.21 1.169.21 1.953s-.077 1.442-.231 1.974c-.182.574-.483 1.019-.903 1.334s-.91.472-1.47.472zm8.967 1.575c.098 0 .175-.028.231-.084s.084-.133.084-.231v-6.804c.07-.602.311-1.081.724-1.438s.921-.536 1.523-.536c.672 0 1.211.217 1.617.651s.609 1.001.609 1.701v6.426c0 .098.028.175.084.231s.133.084.231.084h1.386c.098 0 .175-.028.231-.084s.084-.133.084-.231v-6.825c0-1.134-.336-2.033-1.008-2.699s-1.582-.997-2.73-.997c-1.176 0-2.058.371-2.646 1.113-.014.028-.035.035-.063.021s-.042-.042-.042-.084v-.588c0-.098-.028-.175-.084-.231s-.133-.084-.231-.084h-1.386c-.098 0-.175.028-.231.084s-.084.133-.084.231v10.059c0 .098.028.175.084.231s.133.084.231.084zm12.537.168c.63 0 1.215-.098 1.754-.294s1.005-.476 1.397-.84c.028-.028.056-.035.084-.021s.042.042.042.084v.588c0 .098.028.175.084.231s.133.084.231.084h1.386c.098 0 .175-.028.231-.084s.084-.133.084-.231v-6.993c0-.686-.171-1.298-.514-1.837s-.833-.959-1.47-1.26-1.382-.451-2.237-.451c-1.134 0-2.089.255-2.867.767s-1.228 1.166-1.355 1.963c-.014.07.007.13.063.178s.133.081.231.095l1.512.189c.182.014.301-.07.357-.252.112-.378.346-.672.703-.882s.823-.315 1.397-.315c.728 0 1.27.171 1.627.514s.536.822.536 1.438v.546c0 .07-.035.105-.105.105h-2.331c-1.372 0-2.44.311-3.202.934s-1.145 1.48-1.145 2.572c0 1.064.329 1.858.987 2.383s1.498.788 2.52.788zm.504-1.701c-.588 0-1.068-.133-1.439-.399s-.556-.658-.556-1.176a1.52 1.52 0 0 1 .735-1.344c.49-.322 1.148-.483 1.974-.483h1.953c.07 0 .105.035.105.105v1.218c0 .602-.276 1.099-.829 1.491s-1.201.588-1.942.588zm9.198 1.533c.098 0 .175-.028.231-.084s.084-.133.084-.231v-6.531c0-.686.193-1.232.578-1.638s.899-.609 1.543-.609 1.159.207 1.543.62.578.97.578 1.669v6.489c0 .098.028.175.084.231s.133.084.231.084h1.365c.098 0 .175-.028.231-.084s.084-.133.084-.231v-6.531c0-.686.203-1.232.609-1.638s.931-.609 1.575-.609 1.159.207 1.543.62.577.97.577 1.669v6.489c0 .098.028.175.084.231s.133.084.231.084h1.365c.098 0 .175-.028.231-.084s.084-.133.084-.231v-6.909c0-1.134-.308-2.02-.924-2.657s-1.456-.956-2.52-.956c-.672 0-1.285.13-1.838.389s-.99.661-1.312 1.207c-.056.056-.105.056-.147 0a2.85 2.85 0 0 0 -1.187-1.186c-.511-.273-1.116-.41-1.816-.41-1.148 0-2.037.364-2.667 1.092-.028.028-.056.035-.084.021s-.042-.042-.042-.084v-.567c0-.098-.028-.175-.084-.231s-.133-.084-.231-.084h-1.386c-.098 0-.175.028-.231.084s-.084.133-.084.231v10.059c0 .098.028.175.084.231s.133.084.231.084h1.386zm16.821-12.285c.406 0 .735-.123.987-.368s.378-.563.378-.955-.126-.711-.378-.956-.581-.367-.987-.367-.738.122-.998.367-.388.563-.388.956.13.71.388.955.592.368.998.368zm.693 12.285c.098 0 .175-.028.231-.084s.084-.133.084-.231v-10.059c0-.098-.028-.175-.084-.231s-.133-.084-.231-.084h-1.386c-.098 0-.175.028-.231.084s-.084.133-.084.231v10.059c0 .098.028.175.084.231s.133.084.231.084zm7.686.168c1.05 0 1.967-.259 2.751-.777s1.295-1.204 1.533-2.058l.105-.399c.014-.182-.077-.294-.273-.336l-1.365-.231c-.084-.014-.161.011-.231.074a.37.37 0 0 0 -.126.2v.021l-.021.084a2.11 2.11 0 0 1 -.84 1.208c-.434.315-.952.472-1.554.472s-1.109-.161-1.522-.483-.69-.763-.83-1.323c-.126-.504-.189-1.162-.189-1.974 0-.826.063-1.491.189-1.995.126-.532.399-.959.819-1.281s.931-.483 1.533-.483c.616 0 1.141.161 1.575.483s.707.721.819 1.197l.063.273c.042.154.14.231.294.231h.063l1.365-.189c.182-.028.273-.126.273-.294v-.042c-.028-.21-.077-.406-.147-.588-.238-.812-.749-1.484-1.533-2.016s-1.701-.798-2.751-.798-1.957.266-2.72.798a3.99 3.99 0 0 0 -1.565 2.142c-.21.728-.315 1.575-.315 2.541 0 1.05.105 1.897.315 2.541.28.924.798 1.656 1.554 2.194s1.666.809 2.73.809zm12.789 3.843c.098 0 .175-.028.231-.084s.084-.133.084-.231v-4.557c0-.042.014-.066.042-.073s.056.004.084.031c.308.35.668.616 1.082.798s.864.273 1.355.273c1.036 0 1.893-.259 2.572-.777s1.166-1.239 1.459-2.163c.21-.672.315-1.519.315-2.541 0-1.092-.126-1.988-.378-2.688-.308-.91-.794-1.614-1.459-2.111s-1.502-.745-2.51-.745c-.49 0-.942.094-1.355.283s-.774.459-1.082.809c-.028.028-.056.035-.084.021s-.042-.042-.042-.084v-.546c0-.098-.028-.175-.084-.231s-.133-.084-.231-.084h-1.386c-.098 0-.175.028-.231.084s-.084.133-.084.231v14.07c0 .098.028.175.084.231s.133.084.231.084h1.386zm2.667-5.586c-.784 0-1.379-.357-1.785-1.071-.364-.644-.546-1.54-.546-2.688 0-1.162.168-2.044.504-2.646.42-.756 1.029-1.134 1.827-1.134.938 0 1.61.385 2.016 1.155.35.658.525 1.526.525 2.604 0 1.148-.224 2.072-.672 2.772a2.09 2.09 0 0 1 -1.869 1.008zm8.799 1.575c.098 0 .175-.028.231-.084s.084-.133.084-.231v-6.027c0-.686.214-1.242.641-1.669s.969-.654 1.627-.683a1.74 1.74 0 0 1 .315-.021c.266 0 .504.035.714.105.042.014.098.021.168.021.126 0 .196-.07.21-.21l.294-1.365c.042-.182-.014-.315-.168-.399-.336-.154-.714-.231-1.134-.231-1.078 0-1.932.476-2.562 1.428-.028.042-.052.059-.073.053s-.031-.038-.031-.095v-.966c0-.098-.028-.175-.084-.231s-.133-.084-.231-.084h-1.386c-.098 0-.175.028-.231.084s-.084.133-.084.231v10.059c0 .098.028.175.084.231s.133.084.231.084h1.386zm10.311.168c1.022 0 1.911-.263 2.667-.788s1.288-1.256 1.596-2.194c.252-.742.378-1.603.378-2.583 0-.966-.126-1.806-.378-2.52-.322-.91-.857-1.627-1.606-2.152s-1.627-.788-2.636-.788c-1.064 0-1.981.263-2.751.788a4.13 4.13 0 0 0 -1.617 2.173c-.238.686-.357 1.526-.357 2.52 0 .952.126 1.806.378 2.562.308.938.844 1.669 1.607 2.194s1.669.788 2.72.788zm0-1.743c-.602 0-1.117-.157-1.544-.472s-.724-.76-.892-1.334c-.154-.504-.231-1.162-.231-1.974s.077-1.463.231-1.953c.182-.574.483-1.019.903-1.334s.917-.472 1.491-.472c.602 0 1.113.157 1.533.472s.721.76.903 1.334c.14.518.21 1.169.21 1.953s-.077 1.442-.231 1.974c-.182.574-.483 1.019-.903 1.334s-.91.472-1.47.472zm11.277 1.575a.34.34 0 0 0 .357-.252l3.339-10.059c.028-.112.021-.2-.021-.263s-.119-.094-.231-.094l-1.554-.021c-.084 0-.161.025-.231.074s-.112.115-.126.2l-2.268 7.497c-.014.056-.035.087-.063.094s-.049-.017-.063-.074l-2.289-7.518c-.014-.084-.056-.151-.126-.2s-.147-.074-.231-.074h-1.554c-.182 0-.273.077-.273.231 0 .056.007.098.021.126l3.36 10.08a.34.34 0 0 0 .357.252h1.596zm6.993-12.285c.406 0 .735-.123.987-.368s.378-.563.378-.955-.126-.711-.378-.956-.581-.367-.987-.367-.738.122-.998.367-.388.563-.388.956.13.71.388.955.591.368.998.368zm.693 12.285c.098 0 .175-.028.231-.084s.084-.133.084-.231v-10.059c0-.098-.028-.175-.084-.231s-.133-.084-.231-.084h-1.386c-.098 0-.175.028-.231.084s-.084.133-.084.231v10.059c0 .098.028.175.084.231s.133.084.231.084zm7.35.168c.49 0 .941-.095 1.354-.284s.774-.459 1.082-.809c.028-.028.056-.035.084-.021s.042.042.042.084v.546c0 .098.028.175.084.231s.133.084.231.084h1.386c.098 0 .175-.028.231-.084s.084-.133.084-.231v-14.07c0-.098-.028-.175-.084-.231s-.133-.084-.231-.084h-1.386c-.098 0-.175.028-.231.084s-.084.133-.084.231v4.557c0 .042-.014.067-.042.074s-.056-.004-.084-.032c-.308-.35-.668-.616-1.082-.798s-.865-.273-1.354-.273c-1.036 0-1.894.259-2.573.777s-1.165 1.239-1.459 2.163c-.21.672-.315 1.519-.315 2.541 0 1.092.126 1.988.378 2.688.308.91.795 1.614 1.46 2.111s1.501.746 2.51.746zm.21-1.743c-.938 0-1.61-.385-2.016-1.155-.35-.658-.525-1.526-.525-2.604 0-1.148.224-2.072.672-2.772a2.09 2.09 0 0 1 1.869-1.008c.784 0 1.379.357 1.785 1.071.364.644.546 1.54.546 2.688s-.168 2.03-.504 2.646c-.42.756-1.029 1.134-1.827 1.134zm11.634 1.743c.924 0 1.732-.196 2.425-.588a4.1 4.1 0 0 0 1.606-1.617l.042-.168c0-.112-.056-.203-.168-.273l-.861-.525c-.056-.042-.119-.063-.189-.063-.084 0-.161.063-.231.189-.49.868-1.302 1.309-2.436 1.323-.686 0-1.26-.161-1.722-.483s-.77-.763-.924-1.323c-.07-.224-.119-.602-.147-1.134 0-.07.035-.105.105-.105h6.636c.21 0 .315-.105.315-.315l-.147-1.89c-.21-1.316-.665-2.32-1.365-3.014s-1.715-1.039-3.045-1.039c-1.078 0-1.995.28-2.751.84s-1.26 1.323-1.512 2.289c-.154.532-.231 1.309-.231 2.331 0 1.148.175 2.149.525 3.003.35.826.868 1.459 1.554 1.901s1.526.662 2.52.662zm2.289-6.342h-4.767c-.07 0-.105-.035-.105-.105.028-.476.091-.868.189-1.176.14-.518.402-.924.787-1.218s.886-.441 1.502-.441 1.13.164 1.543.493.69.767.829 1.313c.056.224.098.567.126 1.029 0 .07-.035.105-.105.105zm8.463 6.3c1.26 0 2.264-.28 3.014-.84s1.123-1.316 1.123-2.268c0-.686-.189-1.242-.567-1.669a3.61 3.61 0 0 0 -1.376-.966c-.539-.217-1.214-.437-2.026-.662-.826-.238-1.424-.462-1.796-.672s-.556-.518-.556-.924.192-.728.577-.966.886-.357 1.502-.357c.686 0 1.228.136 1.627.41s.599.612.599 1.018v.126c0 .042.028.077.084.105s.133.042.231.042h1.26c.098 0 .175-.025.231-.074s.084-.115.084-.2a2.58 2.58 0 0 0 -.504-1.554c-.336-.462-.815-.823-1.438-1.082s-1.341-.388-2.152-.388c-1.218 0-2.195.276-2.93.829a2.65 2.65 0 0 0 -1.103 2.236c0 .672.185 1.221.557 1.648s.826.756 1.365.987 1.207.459 2.005.683c.812.224 1.4.438 1.764.64s.546.508.546.913c0 .42-.196.767-.588 1.04s-.91.41-1.554.41-1.18-.147-1.607-.441-.64-.637-.64-1.029v-.168c0-.042-.028-.077-.084-.105s-.133-.042-.231-.042h-1.302c-.098 0-.175.028-.231.084s-.084.133-.084.231v.126c0 .532.175 1.018.525 1.459s.844.787 1.481 1.04 1.368.378 2.194.378zm14.679-.147.861-.021c.21-.028.315-.14.315-.336v-1.092c0-.098-.028-.175-.084-.231s-.133-.084-.231-.084h-.504c-.574 0-.99-.126-1.249-.378s-.389-.679-.389-1.281v-5.481c0-.07.035-.105.105-.105h2.142c.098 0 .175-.028.231-.084s.084-.133.084-.231v-1.029c0-.098-.028-.175-.084-.231s-.133-.084-.231-.084h-2.142c-.07 0-.105-.035-.105-.105v-2.352c0-.098-.028-.175-.084-.231s-.133-.084-.231-.084h-1.302c-.098 0-.175.028-.231.084s-.084.133-.084.231v2.352c0 .07-.035.105-.105.105h-1.155c-.098 0-.175.028-.231.084s-.084.133-.084.231v1.029c0 .098.028.175.084.231s.133.084.231.084h1.155c.07 0 .105.035.105.105v6.216c0 1.036.266 1.743.798 2.121s1.337.567 2.415.567zm5.46.021c.098 0 .175-.028.231-.084s.084-.133.084-.231v-6.804c.07-.602.312-1.081.725-1.438s.921-.536 1.522-.536c.672 0 1.211.217 1.617.651s.609 1.001.609 1.701v6.426c0 .098.028.175.084.231s.133.084.231.084h1.386c.098 0 .175-.028.231-.084s.084-.133.084-.231v-6.825c0-1.134-.336-2.033-1.008-2.699s-1.582-.997-2.73-.997c-1.176 0-2.058.371-2.646 1.113-.014.028-.035.035-.063.021s-.042-.042-.042-.084v-4.599c0-.098-.028-.175-.084-.231s-.133-.084-.231-.084h-1.386c-.098 0-.175.028-.231.084s-.084.133-.084.231v14.07c0 .098.028.175.084.231s.133.084.231.084zm13.986.168c.924 0 1.733-.196 2.425-.588a4.1 4.1 0 0 0 1.607-1.617l.042-.168c0-.112-.056-.203-.168-.273l-.861-.525c-.056-.042-.119-.063-.189-.063-.084 0-.161.063-.231.189-.49.868-1.302 1.309-2.436 1.323-.686 0-1.26-.161-1.722-.483s-.77-.763-.924-1.323c-.07-.224-.119-.602-.147-1.134 0-.07.035-.105.105-.105h6.636c.21 0 .315-.105.315-.315l-.147-1.89c-.21-1.316-.665-2.32-1.365-3.014s-1.715-1.039-3.045-1.039c-1.078 0-1.995.28-2.751.84s-1.26 1.323-1.512 2.289c-.154.532-.231 1.309-.231 2.331 0 1.148.175 2.149.525 3.003.35.826.868 1.459 1.554 1.901s1.526.662 2.52.662zm2.289-6.342h-4.767c-.07 0-.105-.035-.105-.105.028-.476.091-.868.189-1.176.14-.518.402-.924.787-1.218s.886-.441 1.502-.441 1.13.164 1.543.493.69.767.829 1.313c.056.224.098.567.126 1.029 0 .07-.035.105-.105.105zm10.731 10.185c.098 0 .175-.028.231-.084s.084-.133.084-.231v-4.557c0-.042.014-.066.042-.073s.056.004.084.031c.308.35.668.616 1.082.798s.865.273 1.355.273c1.036 0 1.893-.259 2.572-.777s1.166-1.239 1.459-2.163c.21-.672.315-1.519.315-2.541 0-1.092-.126-1.988-.378-2.688-.308-.91-.795-1.614-1.459-2.111s-1.502-.745-2.51-.745c-.49 0-.942.094-1.355.283s-.774.459-1.082.809c-.028.028-.056.035-.084.021s-.042-.042-.042-.084v-.546c0-.098-.028-.175-.084-.231s-.133-.084-.231-.084h-1.386c-.098 0-.175.028-.231.084s-.084.133-.084.231v14.07c0 .098.028.175.084.231s.133.084.231.084h1.386zm2.667-5.586c-.784 0-1.379-.357-1.785-1.071-.364-.644-.546-1.54-.546-2.688 0-1.162.168-2.044.504-2.646.42-.756 1.029-1.134 1.827-1.134.938 0 1.61.385 2.016 1.155.35.658.525 1.526.525 2.604 0 1.148-.224 2.072-.672 2.772a2.09 2.09 0 0 1 -1.869 1.008zm11.487 1.743c1.022 0 1.911-.263 2.667-.788s1.288-1.256 1.596-2.194c.252-.742.378-1.603.378-2.583 0-.966-.126-1.806-.378-2.52-.322-.91-.857-1.627-1.606-2.152s-1.627-.788-2.635-.788c-1.064 0-1.981.263-2.751.788a4.13 4.13 0 0 0 -1.617 2.173c-.238.686-.357 1.526-.357 2.52 0 .952.126 1.806.378 2.562.308.938.844 1.669 1.607 2.194s1.669.788 2.719.788zm0-1.743c-.602 0-1.117-.157-1.543-.472s-.725-.76-.893-1.334c-.154-.504-.231-1.162-.231-1.974s.077-1.463.231-1.953c.182-.574.483-1.019.903-1.334s.917-.472 1.491-.472c.602 0 1.113.157 1.533.472s.721.76.903 1.334c.14.518.21 1.169.21 1.953s-.077 1.442-.231 1.974c-.182.574-.483 1.019-.903 1.334s-.91.472-1.47.472zm11.025 1.701c1.26 0 2.264-.28 3.014-.84s1.123-1.316 1.123-2.268c0-.686-.189-1.242-.567-1.669a3.61 3.61 0 0 0 -1.375-.966c-.539-.217-1.214-.437-2.026-.662-.826-.238-1.424-.462-1.796-.672s-.556-.518-.556-.924.192-.728.577-.966.885-.357 1.502-.357c.686 0 1.228.136 1.627.41s.599.612.599 1.018v.126c0 .042.028.077.084.105s.133.042.231.042h1.26c.098 0 .175-.025.231-.074s.084-.115.084-.2a2.58 2.58 0 0 0 -.504-1.554c-.336-.462-.815-.823-1.438-1.082s-1.341-.388-2.153-.388c-1.218 0-2.195.276-2.929.829a2.65 2.65 0 0 0 -1.103 2.236c0 .672.185 1.221.556 1.648s.826.756 1.365.987 1.208.459 2.006.683c.812.224 1.4.438 1.764.64s.546.508.546.913c0 .42-.196.767-.588 1.04s-.91.41-1.554.41-1.18-.147-1.607-.441-.64-.637-.64-1.029v-.168c0-.042-.028-.077-.084-.105s-.133-.042-.231-.042h-1.302c-.098 0-.175.028-.231.084s-.084.133-.084.231v.126c0 .532.175 1.018.525 1.459s.844.787 1.481 1.04 1.369.378 2.195.378zm9.996 0c1.26 0 2.264-.28 3.013-.84s1.124-1.316 1.124-2.268c0-.686-.189-1.242-.567-1.669a3.61 3.61 0 0 0 -1.376-.966c-.539-.217-1.214-.437-2.026-.662-.826-.238-1.424-.462-1.795-.672s-.557-.518-.557-.924.192-.728.577-.966.886-.357 1.502-.357c.686 0 1.228.136 1.627.41s.599.612.599 1.018v.126c0 .042.028.077.084.105s.133.042.231.042h1.26c.098 0 .175-.025.231-.074s.084-.115.084-.2a2.58 2.58 0 0 0 -.504-1.554c-.336-.462-.815-.823-1.438-1.082s-1.341-.388-2.152-.388c-1.218 0-2.195.276-2.93.829a2.65 2.65 0 0 0 -1.103 2.236c0 .672.185 1.221.557 1.648s.826.756 1.365.987 1.207.459 2.005.683c.812.224 1.4.438 1.764.64s.546.508.546.913c0 .42-.196.767-.588 1.04s-.91.41-1.554.41-1.18-.147-1.606-.441-.641-.637-.641-1.029v-.168c0-.042-.028-.077-.084-.105s-.133-.042-.231-.042h-1.302c-.098 0-.175.028-.231.084s-.084.133-.084.231v.126c0 .532.175 1.018.525 1.459s.844.787 1.481 1.04 1.368.378 2.195.378zm7.665-12.411c.406 0 .735-.123.987-.368s.378-.563.378-.955-.126-.711-.378-.956-.581-.367-.987-.367-.738.122-.998.367-.388.563-.388.956.13.71.388.955.591.368.998.368zm.693 12.285c.098 0 .175-.028.231-.084s.084-.133.084-.231v-10.059c0-.098-.028-.175-.084-.231s-.133-.084-.231-.084h-1.386c-.098 0-.175.028-.231.084s-.084.133-.084.231v10.059c0 .098.028.175.084.231s.133.084.231.084zm8.001.168c1.008 0 1.844-.249 2.51-.746s1.151-1.2 1.459-2.111c.252-.7.378-1.596.378-2.688 0-1.022-.105-1.869-.315-2.541-.294-.924-.78-1.645-1.459-2.163s-1.536-.777-2.572-.777c-.49 0-.942.091-1.355.273s-.773.448-1.081.798c-.028.028-.056.038-.084.032s-.042-.032-.042-.074v-4.557c0-.098-.028-.175-.084-.231s-.133-.084-.231-.084h-1.386c-.098 0-.175.028-.231.084s-.084.133-.084.231v14.07c0 .098.028.175.084.231s.133.084.231.084h1.386c.098 0 .175-.028.231-.084s.084-.133.084-.231v-.546c0-.042.014-.07.042-.084s.056-.007.084.021c.308.35.668.62 1.081.809s.865.284 1.355.284zm-.21-1.743c-.798 0-1.407-.378-1.827-1.134-.336-.616-.504-1.498-.504-2.646s.182-2.044.546-2.688c.406-.714 1.001-1.071 1.785-1.071a2.09 2.09 0 0 1 1.869 1.008c.448.7.672 1.624.672 2.772 0 1.078-.175 1.946-.525 2.604-.406.77-1.078 1.155-2.016 1.155zm8.274-10.71c.406 0 .735-.123.987-.368s.378-.563.378-.955-.126-.711-.378-.956-.581-.367-.987-.367-.739.122-.998.367-.389.563-.389.956.13.71.389.955.591.368.998.368zm.693 12.285c.098 0 .175-.028.231-.084s.084-.133.084-.231v-10.059c0-.098-.028-.175-.084-.231s-.133-.084-.231-.084h-1.386c-.098 0-.175.028-.231.084s-.084.133-.084.231v10.059c0 .098.028.175.084.231s.133.084.231.084zm5.124 0c.098 0 .175-.028.231-.084s.084-.133.084-.231v-14.07c0-.098-.028-.175-.084-.231s-.133-.084-.231-.084h-1.386c-.098 0-.175.028-.231.084s-.084.133-.084.231v14.07c0 .098.028.175.084.231s.133.084.231.084zm4.452-12.285c.406 0 .735-.123.987-.368s.378-.563.378-.955-.126-.711-.378-.956-.581-.367-.987-.367-.738.122-.998.367-.388.563-.388.956.13.71.388.955.592.368.998.368zm.693 12.285c.098 0 .175-.028.231-.084s.084-.133.084-.231v-10.059c0-.098-.028-.175-.084-.231s-.133-.084-.231-.084h-1.386c-.098 0-.175.028-.231.084s-.084.133-.084.231v10.059c0 .098.028.175.084.231s.133.084.231.084zm7.392-.021.861-.021c.21-.028.315-.14.315-.336v-1.092c0-.098-.028-.175-.084-.231s-.133-.084-.231-.084h-.504c-.574 0-.99-.126-1.249-.378s-.389-.679-.389-1.281v-5.481c0-.07.035-.105.105-.105h2.142c.098 0 .175-.028.231-.084s.084-.133.084-.231v-1.029c0-.098-.028-.175-.084-.231s-.133-.084-.231-.084h-2.142c-.07 0-.105-.035-.105-.105v-2.352c0-.098-.028-.175-.084-.231s-.133-.084-.231-.084h-1.302c-.098 0-.175.028-.231.084s-.084.133-.084.231v2.352c0 .07-.035.105-.105.105h-1.155c-.098 0-.175.028-.231.084s-.084.133-.084.231v1.029c0 .098.028.175.084.231s.133.084.231.084h1.155c.07 0 .105.035.105.105v6.216c0 1.036.266 1.743.798 2.121s1.337.567 2.415.567zm4.935-12.264c.406 0 .735-.123.987-.368s.378-.563.378-.955-.126-.711-.378-.956-.581-.367-.987-.367-.738.122-.998.367-.389.563-.389.956.13.71.389.955.591.368.998.368zm.693 12.285c.098 0 .175-.028.231-.084s.084-.133.084-.231v-10.059c0-.098-.028-.175-.084-.231s-.133-.084-.231-.084h-1.386c-.098 0-.175.028-.231.084s-.084.133-.084.231v10.059c0 .098.028.175.084.231s.133.084.231.084zm7.707.168c.924 0 1.733-.196 2.425-.588a4.1 4.1 0 0 0 1.606-1.617l.042-.168c0-.112-.056-.203-.168-.273l-.861-.525c-.056-.042-.119-.063-.189-.063-.084 0-.161.063-.231.189-.49.868-1.302 1.309-2.436 1.323-.686 0-1.26-.161-1.722-.483s-.77-.763-.924-1.323c-.07-.224-.119-.602-.147-1.134 0-.07.035-.105.105-.105h6.636c.21 0 .315-.105.315-.315l-.147-1.89c-.21-1.316-.665-2.32-1.365-3.014s-1.715-1.039-3.045-1.039c-1.078 0-1.995.28-2.751.84s-1.26 1.323-1.512 2.289c-.154.532-.231 1.309-.231 2.331 0 1.148.175 2.149.525 3.003.35.826.868 1.459 1.554 1.901s1.526.662 2.52.662zm2.289-6.342h-4.767c-.07 0-.105-.035-.105-.105.028-.476.091-.868.189-1.176.14-.518.403-.924.788-1.218s.885-.441 1.501-.441 1.131.164 1.544.493.689.767.829 1.313c.056.224.098.567.126 1.029 0 .07-.035.105-.105.105zm8.463 6.3c1.26 0 2.264-.28 3.014-.84s1.123-1.316 1.123-2.268c0-.686-.189-1.242-.567-1.669a3.61 3.61 0 0 0 -1.375-.966c-.539-.217-1.214-.437-2.026-.662-.826-.238-1.425-.462-1.796-.672s-.557-.518-.557-.924.193-.728.578-.966.885-.357 1.501-.357c.686 0 1.228.136 1.627.41s.599.612.599 1.018v.126c0 .042.028.077.084.105s.133.042.231.042h1.26c.098 0 .175-.025.231-.074s.084-.115.084-.2a2.58 2.58 0 0 0 -.504-1.554c-.336-.462-.815-.823-1.439-1.082s-1.34-.388-2.152-.388c-1.218 0-2.195.276-2.93.829a2.65 2.65 0 0 0 -1.102 2.236c0 .672.185 1.221.556 1.648s.826.756 1.365.987 1.207.459 2.005.683c.812.224 1.4.438 1.764.64s.546.508.546.913c0 .42-.196.767-.588 1.04s-.91.41-1.554.41-1.179-.147-1.606-.441-.64-.637-.64-1.029v-.168c0-.042-.028-.077-.084-.105s-.133-.042-.231-.042h-1.302c-.098 0-.175.028-.231.084s-.084.133-.084.231v.126c0 .532.175 1.018.525 1.459s.844.787 1.481 1.04 1.368.378 2.195.378zm7.833-.126a1.5 1.5 0 0 0 1.092-.43 1.4 1.4 0 0 0 .441-1.04c0-.392-.157-.728-.472-1.008s-.668-.42-1.06-.42-.742.14-1.05.42-.462.616-.462 1.008c0 .42.143.77.43 1.05s.647.42 1.082.42zm118.842-15 1.491-8.043 1.491 8.043h4.221l2.856-13.482h-3.633l-1.344 9.072-1.806-9.072h-3.591l-1.806 9.072-1.134-9.072h-3.822l2.856 13.482zm16.653 0c1.064 0 1.827-.224 2.289-.672s.693-1.092.693-1.932v-5.271c0-.84-.231-1.484-.693-1.932s-1.225-.672-2.289-.672h-2.667c-1.064 0-1.827.224-2.289.672s-.693 1.092-.693 1.932v5.271c0 .84.231 1.484.693 1.932s1.225.672 2.289.672zm-1.05-2.478h-.567c-.35 0-.525-.154-.525-.462v-4.599c0-.308.175-.462.525-.462h.567c.35 0 .525.154.525.462v4.599c0 .308-.175.462-.525.462zm9.177 2.478v-6.048c0-.952.441-1.428 1.323-1.428h1.197v-3.108h-.315c-.616 0-1.12.154-1.512.462a2.09 2.09 0 0 0 -.756 1.26v-1.617h-3.507v10.479zm7.035 0v-4.893l1.953 4.893h3.717l-2.247-5.313 2.247-5.166h-3.696l-1.974 4.767v-8.337h-3.57v14.049zm15.54 0 1.302-6.174 1.281 6.174h3.549l2.247-10.479h-3.276l-.966 6.573-1.218-6.573h-3.129l-1.365 6.615-.777-6.615h-3.318l2.121 10.479zm12.957-11.529v-2.52h-3.696v2.52zm-.063 11.529v-10.479h-3.57v10.479zm6.972 0v-2.625h-.777c-.35 0-.525-.154-.525-.462v-4.767h1.323v-2.625h-1.323v-2.058h-3.57v2.058h-1.155v2.625h1.155v5.25c0 1.736 1.029 2.604 3.087 2.604zm4.641 0v-7.224c0-.42.189-.63.567-.63h.357c.35 0 .525.154.525.462v7.392h3.57v-7.875c0-1.736-.931-2.604-2.793-2.604h-.378c-.966 0-1.582.378-1.848 1.134v-4.704h-3.57v14.049zm13.86 0c1.078 0 1.715-.448 1.911-1.344v1.344h3.507v-10.479h-3.57v7.224c0 .42-.189.63-.567.63h-.357c-.35 0-.525-.154-.525-.462v-7.392h-3.57v7.875c0 1.736.931 2.604 2.793 2.604zm11.991 0c2.058 0 3.087-.868 3.087-2.604v-1.155c0-.826-.235-1.459-.704-1.901s-1.242-.661-2.32-.661h-1.281c-.35 0-.525-.154-.525-.462v-.924c0-.308.175-.462.525-.462h.21c.35 0 .525.154.525.462v.714h3.402v-.882c0-1.736-1.029-2.604-3.087-2.604h-1.953c-2.058 0-3.087.868-3.087 2.604v1.218c0 1.722 1.008 2.583 3.024 2.583h1.281c.35 0 .525.154.525.462v.84c0 .308-.175.462-.525.462h-.252c-.35 0-.525-.154-.525-.462v-.693h-3.465v.861c0 1.736 1.029 2.604 3.087 2.604zm29.308 8.207 12.146-12.146a1.5 1.5 0 0 0 0-2.121l-12.146-12.146a1.5 1.5 0 0 0 -2.121 0l-1.417 1.417a1.5 1.5 0 0 0 -.003 2.119l9.627 9.67-9.626 9.672a1.5 1.5 0 0 0 .003 2.119l1.417 1.417a1.5 1.5 0 0 0 2.121 0z" fill-rule="nonzero"/></g></svg>