<svg xmlns="http://www.w3.org/2000/svg" width="468" height="60" fill-rule="evenodd"><path fill="#f9461c" d="M0 0h467.358v60H0z"/><path fill="#dc2f06" d="M304.583 0h152.891v60H304.583l18.34-30z"/><path fill="#c92d08" d="M315.109 0H468v60H315.109l18.34-30z"/><g fill="#fff"><path d="M358.45 34l.994-5.362.994 5.362h2.814l1.904-8.988h-2.422l-.896 6.048-1.204-6.048h-2.394l-1.204 6.048-.756-6.048h-2.548L355.636 34h2.814zm11.102 0c.709 0 1.218-.149 1.526-.448s.462-.728.462-1.288h0V28.75c0-.56-.154-.989-.462-1.288s-.817-.448-1.526-.448h0-1.778c-.709 0-1.218.149-1.526.448s-.462.728-.462 1.288h0v3.514c0 .56.154.989.462 1.288s.817.448 1.526.448h0 1.778zm-.7-1.652h-.378c-.233 0-.35-.103-.35-.308h0v-3.066c0-.205.117-.308.35-.308h0 .378c.233 0 .35.103.35.308h0v3.066c0 .205-.117.308-.35.308h0zM374.97 34v-4.032c0-.635.294-.952.882-.952h0 .798v-2.072h-.21c-.411 0-.747.103-1.008.308s-.429.485-.504.84h0v-1.078h-2.338V34h2.38zm4.69 0v-3.262L380.962 34h2.478l-1.498-3.542 1.498-3.444h-2.464l-1.316 3.178v-5.558h-2.38V34h2.38zm10.36 0l.868-4.116.854 4.116h2.366l1.498-6.986h-2.184l-.644 4.382-.812-4.382h-2.086l-.91 4.41-.518-4.41h-2.212L387.654 34h2.366zm8.638-7.686v-1.68h-2.464v1.68h2.464zM398.616 34v-6.986h-2.38V34h2.38zm4.648 0v-1.75h-.518c-.233 0-.35-.103-.35-.308h0v-3.178h.882v-1.75h-.882v-1.372h-2.38v1.372h-.77v1.75h.77v3.5c0 1.157.686 1.736 2.058 1.736h0 1.19zm3.094 0v-4.816c0-.28.126-.42.378-.42h0 .238c.233 0 .35.103.35.308h0V34h2.38v-5.25c0-1.157-.621-1.736-1.862-1.736h0-.252c-.644 0-1.055.252-1.232.756h0v-3.136h-2.38V34h2.38zm9.24 0c.719 0 1.143-.299 1.274-.896h0V34h2.338v-6.986h-2.38v4.816c0 .28-.126.42-.378.42h0-.238c-.233 0-.35-.103-.35-.308h0v-4.928h-2.38v5.25c0 1.157.621 1.736 1.862 1.736h0 .252zm7.994 0c1.372 0 2.058-.579 2.058-1.736h0v-.77c0-.551-.156-.973-.469-1.267s-.828-.441-1.547-.441h0-.854c-.233 0-.35-.103-.35-.308h0v-.616c0-.205.117-.308.35-.308h0 .14c.233 0 .35.103.35.308h0v.476h2.268v-.588c0-1.157-.686-1.736-2.058-1.736h0-1.302c-1.372 0-2.058.579-2.058 1.736h0v.812c0 1.148.672 1.722 2.016 1.722h0 .854c.233 0 .35.103.35.308h0v.56c0 .205-.117.308-.35.308h0-.168c-.233 0-.35-.103-.35-.308h0v-.462h-2.31v.574c0 1.157.686 1.736 2.058 1.736h0 1.372zm15.468 4.754l7.592-7.592a.94.94 0 0 0 0-1.326l-7.591-7.592a.94.94 0 0 0-1.326 0l-.885.885a.94.94 0 0 0-.002 1.324l6.016 6.045-6.016 6.045a.94.94 0 0 0 .002 1.324l.885.885a.94.94 0 0 0 1.326 0zM83.77 26c.113 0 .182-.056.208-.169h0l1.625-6.63c.009-.026.022-.039.039-.039s.03.013.039.039h0l1.677 6.63c.026.113.095.169.208.169h0 .897c.113 0 .182-.056.208-.169h0l2.327-8.71c.017-.069.011-.123-.02-.162s-.08-.059-.15-.059h0-.871c-.113 0-.182.056-.208.169h0l-1.69 6.396c-.009.026-.022.039-.039.039s-.03-.013-.039-.039h0l-1.677-6.396c-.026-.113-.095-.169-.208-.169h0-.923c-.113 0-.182.056-.208.169h0l-1.586 6.396c-.009.026-.022.039-.039.039s-.03-.013-.039-.039h0l-1.69-6.396c-.026-.113-.095-.169-.208-.169h0-.936c-.113 0-.169.048-.169.143 0 .035.004.061.013.078h0l2.392 8.71c.026.113.1.169.221.169h0 .845zm10.465.104c.633 0 1.183-.162 1.651-.488s.797-.778.988-1.358c.156-.459.234-.992.234-1.599 0-.598-.078-1.118-.234-1.56-.199-.563-.531-1.008-.995-1.332s-1.007-.488-1.631-.488c-.659 0-1.226.163-1.703.488s-.81.773-1.001 1.345c-.147.425-.221.945-.221 1.56 0 .589.078 1.118.234 1.586.191.581.522 1.034.995 1.358s1.033.488 1.683.488zm0-1.079c-.373 0-.691-.098-.956-.292s-.448-.47-.552-.826c-.095-.312-.143-.719-.143-1.222s.048-.906.143-1.209c.113-.355.299-.63.559-.825s.568-.293.923-.293c.373 0 .689.098.949.293s.446.47.559.825c.087.321.13.724.13 1.209s-.048.893-.143 1.222c-.113.355-.299.631-.559.826s-.563.292-.91.292zm5.551.975c.061 0 .108-.017.143-.052s.052-.082.052-.143h0v-3.731c0-.425.132-.769.397-1.033s.6-.405 1.008-.423c.043-.009.108-.013.195-.013.165 0 .312.022.442.065.026.009.061.013.104.013.078 0 .121-.043.13-.13h0l.182-.845c.026-.113-.009-.195-.104-.247-.208-.095-.442-.143-.702-.143-.667 0-1.196.295-1.586.884-.017.026-.033.037-.046.032s-.02-.024-.02-.059h0v-.598c0-.061-.017-.108-.052-.143s-.082-.052-.143-.052h0-.858c-.061 0-.108.017-.143.052s-.052.082-.052.143h0v6.227c0 .061.017.108.052.143s.082.052.143.052h0 .858zm6.006.104a1.99 1.99 0 0 0 .838-.175c.256-.117.479-.284.669-.5.017-.017.035-.022.052-.013s.026.026.026.052h0v.338c0 .061.017.108.052.143s.082.052.143.052h0 .858c.061 0 .108-.017.143-.052s.052-.082.052-.143h0v-8.71c0-.061-.017-.108-.052-.143s-.082-.052-.143-.052h0-.858c-.061 0-.108.017-.143.052s-.052.082-.052.143h0v2.821c0 .026-.009.041-.026.046s-.035-.002-.052-.02a1.91 1.91 0 0 0-.669-.494c-.256-.113-.535-.169-.838-.169-.641 0-1.172.16-1.593.481s-.722.767-.903 1.339c-.13.416-.195.94-.195 1.573 0 .676.078 1.231.234 1.664.191.563.492.999.904 1.306s.93.462 1.553.462zm.13-1.079c-.581 0-.997-.238-1.248-.715-.217-.407-.325-.945-.325-1.612 0-.711.139-1.283.416-1.716.269-.416.654-.624 1.157-.624.485 0 .854.221 1.105.663.225.399.338.953.338 1.664s-.104 1.257-.312 1.638c-.26.468-.637.702-1.131.702zm5.668.975c.061 0 .108-.017.143-.052s.052-.082.052-.143h0v-3.614c0-.043.022-.065.065-.065h0 2.275c.537 0 1.012-.108 1.424-.325a2.33 2.33 0 0 0 .956-.91c.225-.39.338-.845.338-1.365s-.111-.979-.332-1.378a2.33 2.33 0 0 0-.936-.93c-.403-.221-.869-.331-1.397-.331h0-3.445c-.061 0-.108.017-.143.052s-.052.082-.052.143h0v8.723c0 .061.017.108.052.143s.082.052.143.052h0 .858zm2.418-4.888h-2.158c-.043 0-.065-.022-.065-.065h0v-3.016c0-.043.022-.065.065-.065h0 2.158c.477 0 .86.145 1.151.435s.435.674.435 1.151c0 .468-.145.845-.435 1.131s-.674.429-1.151.429h0zM119.221 26c.061 0 .108-.017.143-.052s.052-.082.052-.143h0v-3.731c0-.425.132-.769.397-1.033s.6-.405 1.007-.423c.043-.009.108-.013.195-.013.165 0 .312.022.442.065.026.009.061.013.104.013.078 0 .121-.043.13-.13h0l.182-.845c.026-.113-.009-.195-.104-.247-.208-.095-.442-.143-.702-.143-.667 0-1.196.295-1.586.884-.017.026-.032.037-.045.032s-.02-.024-.02-.059h0v-.598c0-.061-.017-.108-.052-.143s-.082-.052-.143-.052h0-.858c-.061 0-.108.017-.143.052s-.052.082-.052.143h0v6.227c0 .061.017.108.052.143s.082.052.143.052h0 .858zm6.331.104c.572 0 1.072-.121 1.501-.364a2.54 2.54 0 0 0 .995-1.001h0l.026-.104c0-.069-.035-.126-.104-.169h0l-.533-.325a.19.19 0 0 0-.117-.039c-.052 0-.1.039-.143.117-.303.537-.806.81-1.508.819-.425 0-.78-.1-1.066-.299s-.477-.472-.572-.819c-.043-.139-.074-.373-.091-.702 0-.043.022-.065.065-.065h0 4.108a.17.17 0 0 0 .195-.195l-.091-1.17c-.13-.815-.412-1.436-.845-1.866s-1.062-.643-1.885-.643c-.667 0-1.235.173-1.703.52s-.78.819-.936 1.417c-.095.329-.143.81-.143 1.443 0 .711.108 1.33.325 1.859.217.511.537.904.962 1.177s.945.409 1.56.409zm1.417-3.926h-2.951c-.043 0-.065-.022-.065-.065.017-.295.056-.537.117-.728.087-.321.249-.572.488-.754s.548-.273.929-.273.7.102.956.305.427.475.514.813c.035.139.061.351.078.637 0 .043-.022.065-.065.065h0zm5.239 3.9c.78 0 1.402-.173 1.865-.52a1.66 1.66 0 0 0 .696-1.404c0-.425-.117-.769-.351-1.033s-.518-.464-.852-.598a11.92 11.92 0 0 0-1.254-.41c-.511-.147-.882-.286-1.112-.416a.62.62 0 0 1-.345-.572c0-.251.119-.451.358-.598s.548-.221.929-.221c.425 0 .761.084 1.007.253s.37.379.37.631h0v.078c0 .026.017.048.052.065s.082.026.143.026h0 .78c.061 0 .108-.015.143-.046s.052-.072.052-.123c0-.355-.104-.676-.312-.962s-.505-.509-.891-.67-.83-.24-1.332-.24c-.754 0-1.358.171-1.814.513a1.64 1.64 0 0 0-.683 1.385c0 .416.115.756.345 1.02s.511.468.845.611.748.284 1.242.422c.503.139.867.271 1.092.396s.338.314.338.566c0 .26-.121.474-.364.643s-.563.254-.962.254-.73-.091-.994-.273-.397-.394-.397-.637h0v-.104c0-.026-.017-.048-.052-.065s-.082-.026-.143-.026h0-.806c-.061 0-.108.017-.143.052s-.052.082-.052.143h0v.078a1.42 1.42 0 0 0 .325.904c.217.273.522.487.917.643s.847.234 1.358.234zm6.188 0c.78 0 1.402-.173 1.866-.52a1.66 1.66 0 0 0 .695-1.404c0-.425-.117-.769-.351-1.033s-.518-.464-.851-.598a11.92 11.92 0 0 0-1.255-.41c-.511-.147-.882-.286-1.112-.416a.62.62 0 0 1-.344-.572c0-.251.119-.451.357-.598s.548-.221.929-.221c.425 0 .761.084 1.008.253s.37.379.37.631h0v.078c0 .026.017.048.052.065s.082.026.143.026h0 .78c.061 0 .108-.015.143-.046s.052-.072.052-.123c0-.355-.104-.676-.312-.962s-.505-.509-.891-.67-.83-.24-1.333-.24c-.754 0-1.358.171-1.814.513a1.64 1.64 0 0 0-.682 1.385c0 .416.115.756.344 1.02s.511.468.845.611.748.284 1.242.422c.503.139.867.271 1.092.396s.338.314.338.566c0 .26-.121.474-.364.643s-.563.254-.962.254-.73-.091-.995-.273-.397-.394-.397-.637h0v-.104c0-.026-.017-.048-.052-.065s-.082-.026-.143-.026h0-.806c-.061 0-.108.017-.143.052s-.052.082-.052.143h0v.078a1.42 1.42 0 0 0 .325.904c.217.273.522.487.916.643s.847.234 1.358.234zm9.334.026c.633 0 1.183-.162 1.651-.488s.797-.778.988-1.358c.156-.459.234-.992.234-1.599 0-.598-.078-1.118-.234-1.56-.199-.563-.531-1.008-.994-1.332s-1.008-.488-1.632-.488c-.659 0-1.226.163-1.703.488s-.81.773-1.001 1.345c-.147.425-.221.945-.221 1.56 0 .589.078 1.118.234 1.586.191.581.522 1.034.995 1.358s1.034.488 1.683.488zm0-1.079c-.373 0-.691-.098-.956-.292s-.448-.47-.552-.826c-.095-.312-.143-.719-.143-1.222s.048-.906.143-1.209c.113-.355.299-.63.559-.825s.568-.293.923-.293c.373 0 .689.098.949.293s.446.47.559.825c.087.321.13.724.13 1.209s-.048.893-.143 1.222c-.113.355-.299.631-.559.826s-.563.292-.91.292zm5.98.975c.061 0 .108-.017.143-.052s.052-.082.052-.143h0v-5.213c0-.043.022-.065.065-.065h0 1.287c.061 0 .108-.017.143-.052s.052-.082.052-.143h0v-.754c0-.061-.017-.108-.052-.143s-.082-.052-.143-.052h0-1.287c-.043 0-.065-.022-.065-.065h0v-.143c0-.459.078-.771.234-.936s.451-.247.884-.247h0 .247c.061 0 .108-.017.143-.052s.052-.082.052-.143h0v-.702c0-.061-.017-.108-.052-.143s-.082-.052-.143-.052h0-.377c-.581 0-1.031.067-1.352.202a1.23 1.23 0 0 0-.683.669c-.134.312-.201.754-.201 1.326h0v.221c0 .043-.022.065-.065.065h0-.793c-.061 0-.108.017-.143.052s-.052.082-.052.143h0v.754c0 .061.017.108.052.143s.082.052.143.052h0 .793c.043 0 .065.022.065.065h0v5.213c0 .061.017.108.052.143s.082.052.143.052h0 .858zm4.771 0c.061 0 .108-.017.143-.052s.052-.082.052-.143h0v-5.213c0-.043.022-.065.065-.065h0 1.287c.061 0 .108-.017.143-.052s.052-.082.052-.143h0v-.754c0-.061-.017-.108-.052-.143s-.082-.052-.143-.052h0-1.287c-.043 0-.065-.022-.065-.065h0v-.143c0-.459.078-.771.234-.936s.451-.247.884-.247h0 .247c.061 0 .108-.017.143-.052s.052-.082.052-.143h0v-.702c0-.061-.017-.108-.052-.143s-.082-.052-.143-.052h0-.377c-.581 0-1.031.067-1.352.202a1.23 1.23 0 0 0-.683.669c-.134.312-.202.754-.202 1.326h0v.221c0 .043-.022.065-.065.065h0-.793c-.061 0-.108.017-.143.052s-.052.082-.052.143h0v.754c0 .061.017.108.052.143s.082.052.143.052h0 .793c.043 0 .065.022.065.065h0v5.213c0 .061.017.108.052.143s.082.052.143.052h0 .858zm5.304.104c.572 0 1.072-.121 1.501-.364a2.54 2.54 0 0 0 .995-1.001h0l.026-.104c0-.069-.035-.126-.104-.169h0l-.533-.325a.19.19 0 0 0-.117-.039c-.052 0-.1.039-.143.117-.303.537-.806.81-1.508.819-.425 0-.78-.1-1.066-.299s-.477-.472-.572-.819c-.043-.139-.074-.373-.091-.702 0-.043.022-.065.065-.065h0 4.108a.17.17 0 0 0 .195-.195l-.091-1.17c-.13-.815-.412-1.436-.845-1.866s-1.062-.643-1.885-.643c-.667 0-1.235.173-1.703.52s-.78.819-.936 1.417c-.095.329-.143.81-.143 1.443 0 .711.108 1.33.325 1.859.217.511.537.904.962 1.177s.945.409 1.56.409zm1.417-3.926h-2.951c-.043 0-.065-.022-.065-.065.017-.295.056-.537.117-.728.087-.321.249-.572.488-.754s.548-.273.929-.273.7.102.956.305.427.475.513.813c.035.139.061.351.078.637 0 .043-.022.065-.065.065h0zM169.167 26c.061 0 .108-.017.143-.052s.052-.082.052-.143h0v-3.731c0-.425.132-.769.397-1.033s.6-.405 1.007-.423c.043-.009.108-.013.195-.013.165 0 .312.022.442.065.026.009.061.013.104.013.078 0 .121-.043.13-.13h0l.182-.845c.026-.113-.009-.195-.104-.247-.208-.095-.442-.143-.702-.143-.667 0-1.196.295-1.586.884-.017.026-.032.037-.046.032s-.019-.024-.019-.059h0v-.598c0-.061-.017-.108-.052-.143s-.082-.052-.143-.052h0-.858c-.061 0-.108.017-.143.052s-.052.082-.052.143h0v6.227c0 .061.017.108.052.143s.082.052.143.052h0 .858zm6.032.078c.78 0 1.402-.173 1.865-.52a1.66 1.66 0 0 0 .695-1.404c0-.425-.117-.769-.351-1.033s-.518-.464-.851-.598a11.92 11.92 0 0 0-1.255-.41c-.511-.147-.882-.286-1.112-.416a.62.62 0 0 1-.344-.572c0-.251.119-.451.357-.598s.548-.221.929-.221c.425 0 .761.084 1.008.253s.37.379.37.631h0v.078c0 .026.017.048.052.065s.082.026.143.026h0 .78c.061 0 .108-.015.143-.046s.052-.072.052-.123c0-.355-.104-.676-.312-.962s-.505-.509-.891-.67-.83-.24-1.333-.24c-.754 0-1.358.171-1.814.513a1.64 1.64 0 0 0-.682 1.385c0 .416.115.756.344 1.02s.511.468.845.611.748.284 1.242.422c.503.139.867.271 1.092.396s.338.314.338.566c0 .26-.121.474-.364.643s-.563.254-.962.254-.73-.091-.995-.273-.397-.394-.397-.637h0v-.104c0-.026-.017-.048-.052-.065s-.082-.026-.143-.026h0-.806c-.061 0-.108.017-.143.052s-.052.082-.052.143h0v.078a1.42 1.42 0 0 0 .325.904c.217.273.522.487.916.643s.847.234 1.359.234zm9.334.026c.633 0 1.183-.162 1.651-.488s.797-.778.988-1.358c.156-.459.234-.992.234-1.599 0-.598-.078-1.118-.234-1.56-.199-.563-.531-1.008-.994-1.332s-1.008-.488-1.632-.488c-.659 0-1.226.163-1.703.488s-.81.773-1.001 1.345c-.147.425-.221.945-.221 1.56 0 .589.078 1.118.234 1.586.191.581.522 1.034.995 1.358s1.034.488 1.683.488zm0-1.079c-.373 0-.691-.098-.956-.292s-.448-.47-.552-.826c-.095-.312-.143-.719-.143-1.222s.048-.906.143-1.209c.113-.355.299-.63.559-.825s.568-.293.923-.293c.373 0 .689.098.949.293s.446.47.559.825c.087.321.13.724.13 1.209s-.048.893-.143 1.222c-.113.355-.299.631-.559.826s-.563.292-.91.292zm5.629 3.458c.061 0 .108-.017.143-.052s.052-.082.052-.143h0v-2.821c0-.026.009-.041.026-.045s.035.002.052.019a1.91 1.91 0 0 0 .669.494c.256.113.535.169.839.169.641 0 1.172-.16 1.593-.481s.721-.767.903-1.339c.13-.416.195-.94.195-1.573 0-.676-.078-1.231-.234-1.664-.191-.563-.492-.999-.904-1.306s-.929-.462-1.553-.462a1.99 1.99 0 0 0-.839.175c-.256.117-.479.284-.669.5-.017.017-.035.022-.052.013s-.026-.026-.026-.052h0v-.338c0-.061-.017-.108-.052-.143s-.082-.052-.143-.052h0-.858c-.061 0-.108.017-.143.052s-.052.082-.052.143h0v8.71c0 .061.017.108.052.143s.082.052.143.052h0 .858zm1.651-3.458c-.485 0-.854-.221-1.105-.663-.225-.399-.338-.953-.338-1.664 0-.719.104-1.265.312-1.638.26-.468.637-.702 1.131-.702.581 0 .997.238 1.248.715.217.407.325.945.325 1.612 0 .711-.139 1.283-.416 1.716-.269.416-.654.624-1.157.624zm5.525 3.458c.061 0 .108-.017.143-.052s.052-.082.052-.143h0v-2.821c0-.026.009-.041.026-.045s.035.002.052.019a1.91 1.91 0 0 0 .669.494c.256.113.535.169.839.169.641 0 1.172-.16 1.593-.481s.721-.767.904-1.339c.13-.416.195-.94.195-1.573 0-.676-.078-1.231-.234-1.664-.191-.563-.492-.999-.903-1.306s-.93-.462-1.554-.462a1.99 1.99 0 0 0-.839.175c-.256.117-.479.284-.669.5-.017.017-.035.022-.052.013s-.026-.026-.026-.052h0v-.338c0-.061-.017-.108-.052-.143s-.082-.052-.143-.052h0-.858c-.061 0-.108.017-.143.052s-.052.082-.052.143h0v8.71c0 .061.017.108.052.143s.082.052.143.052h0 .858zm1.651-3.458c-.485 0-.854-.221-1.105-.663-.225-.399-.338-.953-.338-1.664 0-.719.104-1.265.312-1.638.26-.468.637-.702 1.131-.702.581 0 .997.238 1.248.715.217.407.325.945.325 1.612 0 .711-.139 1.283-.416 1.716-.269.416-.654.624-1.157.624zm7.111 1.079c.633 0 1.183-.162 1.651-.488s.797-.778.988-1.358c.156-.459.234-.992.234-1.599 0-.598-.078-1.118-.234-1.56-.199-.563-.531-1.008-.995-1.332s-1.007-.488-1.631-.488c-.659 0-1.226.163-1.703.488s-.81.773-1.001 1.345c-.147.425-.221.945-.221 1.56 0 .589.078 1.118.234 1.586.191.581.522 1.034.995 1.358s1.033.488 1.683.488zm0-1.079c-.373 0-.691-.098-.956-.292s-.448-.47-.552-.826c-.095-.312-.143-.719-.143-1.222s.048-.906.143-1.209c.113-.355.299-.63.559-.825s.568-.293.923-.293c.373 0 .689.098.949.293s.446.47.559.825c.087.321.13.724.13 1.209s-.048.893-.143 1.222c-.113.355-.299.631-.559.826s-.563.292-.91.292zm5.551.975c.061 0 .108-.017.143-.052s.052-.082.052-.143h0v-3.731c0-.425.132-.769.397-1.033s.6-.405 1.007-.423c.043-.009.108-.013.195-.013.165 0 .312.022.442.065.026.009.061.013.104.013.078 0 .121-.043.13-.13h0l.182-.845c.026-.113-.009-.195-.104-.247-.208-.095-.442-.143-.702-.143-.667 0-1.196.295-1.586.884-.017.026-.032.037-.046.032s-.019-.024-.019-.059h0v-.598c0-.061-.017-.108-.052-.143s-.082-.052-.143-.052h0-.858c-.061 0-.108.017-.143.052s-.052.082-.052.143h0v6.227c0 .061.017.108.052.143s.082.052.143.052h0 .858zm6.383-.013l.533-.013c.13-.017.195-.087.195-.208h0v-.676c0-.061-.017-.108-.052-.143s-.082-.052-.143-.052h0-.312c-.355 0-.613-.078-.773-.234s-.24-.42-.24-.793h0v-3.393c0-.043.022-.065.065-.065h0 1.326c.061 0 .108-.017.143-.052s.052-.082.052-.143h0v-.637c0-.061-.017-.108-.052-.143s-.082-.052-.143-.052h0-1.326c-.043 0-.065-.022-.065-.065h0v-1.456c0-.061-.017-.108-.052-.143s-.082-.052-.143-.052h0-.806c-.061 0-.108.017-.143.052s-.052.082-.052.143h0v1.456c0 .043-.022.065-.065.065h0-.715c-.061 0-.108.017-.143.052s-.052.082-.052.143h0v.637c0 .061.017.108.052.143s.082.052.143.052h0 .715c.043 0 .065.022.065.065h0v3.848c0 .641.165 1.079.494 1.313s.828.351 1.495.351h0zm4.602.104c.711 0 1.239-.234 1.586-.702.017-.017.035-.024.052-.02s.026.02.026.046h0v.39c0 .061.017.108.052.143s.082.052.143.052h0 .845c.061 0 .108-.017.143-.052s.052-.082.052-.143h0v-6.227c0-.061-.017-.108-.052-.143s-.082-.052-.143-.052h0-.845c-.061 0-.108.017-.143.052s-.052.082-.052.143h0v3.978c0 .442-.13.795-.39 1.06s-.607.396-1.04.396-.769-.13-1.007-.39-.358-.615-.358-1.066h0v-3.978c0-.061-.017-.108-.052-.143s-.082-.052-.143-.052h0-.845c-.061 0-.108.017-.143.052s-.052.082-.052.143h0v4.368c0 .459.108.849.325 1.17s.505.563.864.728.752.247 1.177.247zm5.772-.091c.061 0 .108-.017.143-.052s.052-.082.052-.143h0v-4.212c.043-.373.193-.669.448-.89a1.39 1.39 0 0 1 .942-.332c.416 0 .75.134 1.001.403s.377.62.377 1.053h0v3.978c0 .061.017.108.052.143s.082.052.143.052h0 .858c.061 0 .108-.017.143-.052s.052-.082.052-.143h0V21.58c0-.702-.208-1.259-.624-1.67s-.979-.617-1.69-.617c-.728 0-1.274.23-1.638.689-.009.017-.022.022-.039.013s-.026-.026-.026-.052h0v-.364c0-.061-.017-.108-.052-.143s-.082-.052-.143-.052h0-.858c-.061 0-.108.017-.143.052s-.052.082-.052.143h0v6.227c0 .061.017.108.052.143s.082.052.143.052h0 .858zm6.721-7.605c.251 0 .455-.076.611-.227s.234-.349.234-.591-.078-.44-.234-.591-.36-.227-.611-.227-.457.076-.617.227-.241.349-.241.591.08.44.241.591.366.227.617.227zm.429 7.605c.061 0 .108-.017.143-.052s.052-.082.052-.143h0v-6.227c0-.061-.017-.108-.052-.143s-.082-.052-.143-.052h0-.858c-.061 0-.108.017-.143.052s-.052.082-.052.143h0v6.227c0 .061.017.108.052.143s.082.052.143.052h0 .858zm4.576-.013l.533-.013c.13-.017.195-.087.195-.208h0v-.676c0-.061-.017-.108-.052-.143s-.082-.052-.143-.052h0-.312c-.355 0-.613-.078-.773-.234s-.24-.42-.24-.793h0v-3.393c0-.043.022-.065.065-.065h0 1.326c.061 0 .108-.017.143-.052s.052-.082.052-.143h0v-.637c0-.061-.017-.108-.052-.143s-.082-.052-.143-.052h0-1.326c-.043 0-.065-.022-.065-.065h0v-1.456c0-.061-.017-.108-.052-.143s-.082-.052-.143-.052h0-.806c-.061 0-.108.017-.143.052s-.052.082-.052.143h0v1.456c0 .043-.022.065-.065.065h0-.715c-.061 0-.108.017-.143.052s-.052.082-.052.143h0v.637c0 .061.017.108.052.143s.082.052.143.052h0 .715c.043 0 .065.022.065.065h0v3.848c0 .641.165 1.079.494 1.313s.828.351 1.495.351h0zm3.055-7.592c.251 0 .455-.076.611-.227s.234-.349.234-.591-.078-.44-.234-.591-.36-.227-.611-.227-.457.076-.618.227-.24.349-.24.591.08.44.24.591.366.227.618.227zm.429 7.605c.061 0 .108-.017.143-.052s.052-.082.052-.143h0v-6.227c0-.061-.017-.108-.052-.143s-.082-.052-.143-.052h0-.858c-.061 0-.108.017-.143.052s-.052.082-.052.143h0v6.227c0 .061.017.108.052.143s.082.052.143.052h0 .858zm4.771.104c.572 0 1.072-.121 1.501-.364a2.54 2.54 0 0 0 .994-1.001h0l.026-.104c0-.069-.035-.126-.104-.169h0l-.533-.325a.19.19 0 0 0-.117-.039c-.052 0-.1.039-.143.117-.303.537-.806.81-1.508.819-.425 0-.78-.1-1.066-.299s-.477-.472-.572-.819c-.043-.139-.074-.373-.091-.702 0-.043.022-.065.065-.065h0 4.108a.17.17 0 0 0 .195-.195l-.091-1.17c-.13-.815-.412-1.436-.845-1.866s-1.062-.643-1.885-.643c-.667 0-1.235.173-1.703.52s-.78.819-.936 1.417c-.095.329-.143.81-.143 1.443 0 .711.108 1.33.325 1.859.217.511.537.904.962 1.177s.945.409 1.56.409zm1.417-3.926h-2.951c-.043 0-.065-.022-.065-.065.017-.295.056-.537.117-.728.087-.321.249-.572.487-.754s.548-.273.93-.273.7.102.956.305.427.475.513.813c.035.139.061.351.078.637 0 .043-.022.065-.065.065h0zm5.239 3.9c.78 0 1.402-.173 1.866-.52a1.66 1.66 0 0 0 .695-1.404c0-.425-.117-.769-.351-1.033s-.518-.464-.851-.598a11.92 11.92 0 0 0-1.255-.41c-.511-.147-.882-.286-1.112-.416a.62.62 0 0 1-.344-.572c0-.251.119-.451.357-.598s.548-.221.929-.221c.425 0 .761.084 1.008.253s.37.379.37.631h0v.078c0 .026.017.048.052.065s.082.026.143.026h0 .78c.061 0 .108-.015.143-.046s.052-.072.052-.123c0-.355-.104-.676-.312-.962s-.505-.509-.891-.67-.83-.24-1.332-.24c-.754 0-1.358.171-1.814.513a1.64 1.64 0 0 0-.682 1.385c0 .416.115.756.344 1.02s.511.468.845.611.748.284 1.242.422c.503.139.867.271 1.092.396s.338.314.338.566c0 .26-.121.474-.364.643s-.563.254-.962.254-.73-.091-.995-.273-.397-.394-.397-.637h0v-.104c0-.026-.017-.048-.052-.065s-.082-.026-.143-.026h0-.806c-.061 0-.108.017-.143.052s-.052.082-.052.143h0v.078a1.42 1.42 0 0 0 .325.904c.217.273.522.487.916.643s.847.234 1.358.234zm4.849-.078a.93.93 0 0 0 .676-.267c.182-.178.273-.392.273-.643 0-.243-.098-.451-.293-.624s-.414-.26-.656-.26a.94.94 0 0 0-.65.26c-.191.173-.286.381-.286.624a.87.87 0 0 0 .266.65.92.92 0 0 0 .67.26zM82.041 43c.061 0 .108-.017.143-.052s.052-.082.052-.143h0v-3.614c0-.043.022-.065.065-.065h0 2.275c.537 0 1.012-.108 1.424-.325a2.33 2.33 0 0 0 .956-.91c.225-.39.338-.845.338-1.365s-.111-.979-.332-1.378a2.33 2.33 0 0 0-.936-.93c-.403-.221-.869-.331-1.397-.331h0-3.445c-.061 0-.108.017-.143.052s-.052.082-.052.143h0v8.723c0 .061.017.108.052.143s.082.052.143.052h0 .858zm2.418-4.888h-2.158c-.043 0-.065-.022-.065-.065h0v-3.016c0-.043.022-.065.065-.065h0 2.158c.477 0 .86.145 1.15.435s.436.674.436 1.151c0 .468-.145.845-.436 1.131s-.674.429-1.15.429h0zM89.672 43c.061 0 .108-.017.143-.052s.052-.082.052-.143h0v-3.731c0-.425.132-.769.396-1.033s.6-.405 1.008-.422c.043-.009.108-.013.195-.013.165 0 .312.022.442.065.026.009.061.013.104.013.078 0 .121-.043.13-.13h0l.182-.845c.026-.113-.009-.195-.104-.247-.208-.095-.442-.143-.702-.143-.667 0-1.196.295-1.586.884-.017.026-.032.037-.046.032s-.019-.024-.019-.058h0v-.598c0-.061-.017-.108-.052-.143s-.082-.052-.143-.052h0-.858c-.061 0-.108.017-.143.052s-.052.082-.052.143h0v6.227c0 .061.017.108.052.143s.082.052.143.052h0 .858zm6.383.104c.633 0 1.183-.163 1.651-.487s.797-.778.988-1.358c.156-.459.234-.992.234-1.599 0-.598-.078-1.118-.234-1.56-.199-.563-.531-1.007-.995-1.332s-1.008-.487-1.632-.487c-.659 0-1.226.162-1.703.487s-.81.773-1.001 1.346c-.147.425-.221.945-.221 1.56 0 .589.078 1.118.234 1.586.191.581.522 1.033.995 1.358s1.034.487 1.684.487zm0-1.079c-.373 0-.691-.097-.956-.292s-.449-.47-.553-.826c-.095-.312-.143-.719-.143-1.222s.048-.906.143-1.209c.113-.355.299-.63.559-.825s.568-.293.923-.293c.373 0 .689.098.949.293s.446.47.559.825c.087.321.13.724.13 1.209s-.048.893-.143 1.222c-.113.355-.299.631-.559.826s-.563.292-.91.292zm5.551.975c.061 0 .108-.017.143-.052s.052-.082.052-.143h0v-4.212c.043-.373.193-.67.448-.891a1.39 1.39 0 0 1 .942-.331c.416 0 .75.134 1.001.403s.377.62.377 1.053h0v3.978c0 .061.017.108.052.143s.082.052.143.052h0 .858c.061 0 .108-.017.143-.052s.052-.082.052-.143h0V38.58c0-.702-.208-1.259-.624-1.67s-.979-.617-1.69-.617c-.728 0-1.274.23-1.638.689-.009.017-.022.022-.039.013s-.026-.026-.026-.052h0v-.364c0-.061-.017-.108-.052-.143s-.082-.052-.143-.052h0-.858c-.061 0-.108.017-.143.052s-.052.082-.052.143h0v6.227c0 .061.017.108.052.143s.082.052.143.052h0 .858zm7.761.104c.39 0 .752-.061 1.085-.182a2.52 2.52 0 0 0 .864-.52c.017-.017.035-.022.052-.013s.026.026.026.052h0v.364c0 .061.017.108.052.143s.082.052.143.052h0 .858c.061 0 .108-.017.143-.052s.052-.082.052-.143h0v-4.329c0-.425-.106-.804-.319-1.137a2.12 2.12 0 0 0-.91-.78c-.394-.186-.856-.279-1.385-.279-.702 0-1.293.158-1.775.474s-.76.721-.838 1.215c-.009.043.004.08.039.111a.27.27 0 0 0 .143.058h0l.936.117c.113.009.186-.043.221-.156a.92.92 0 0 1 .436-.546c.221-.13.509-.195.864-.195.451 0 .787.106 1.008.319s.331.509.331.891h0v.338c0 .043-.022.065-.065.065h0-1.443c-.849 0-1.51.193-1.983.578s-.709.917-.709 1.593c0 .659.204 1.151.611 1.476s.927.487 1.56.487zm.312-1.053c-.364 0-.661-.082-.891-.247s-.344-.407-.344-.728a.94.94 0 0 1 .455-.832c.303-.199.711-.299 1.222-.299h0 1.209c.043 0 .065.022.065.065h0v.754c0 .373-.171.68-.513.923s-.743.364-1.203.364zm5.694.949c.061 0 .108-.017.143-.052s.052-.082.052-.143h0v-4.043c0-.425.119-.763.358-1.014s.557-.377.956-.377.717.128.956.383.358.6.358 1.033h0v4.017c0 .061.017.108.052.143s.082.052.143.052h0 .845c.061 0 .108-.017.143-.052s.052-.082.052-.143h0v-4.043c0-.425.126-.763.377-1.014s.576-.377.975-.377.717.128.956.383.357.6.357 1.033h0v4.017c0 .061.017.108.052.143s.082.052.143.052h0 .845c.061 0 .108-.017.143-.052s.052-.082.052-.143h0v-4.277c0-.702-.191-1.25-.572-1.645s-.901-.591-1.56-.591c-.416 0-.795.08-1.138.24s-.613.41-.812.748c-.035.035-.065.035-.091 0-.173-.321-.418-.566-.735-.735s-.691-.253-1.124-.253c-.711 0-1.261.225-1.651.676-.017.017-.035.022-.052.013s-.026-.026-.026-.052h0v-.351c0-.061-.017-.108-.052-.143s-.082-.052-.143-.052h0-.858c-.061 0-.108.017-.143.052s-.052.082-.052.143h0v6.227c0 .061.017.108.052.143s.082.052.143.052h0 .858zm10.413-7.605c.251 0 .455-.076.611-.228s.234-.349.234-.591-.078-.44-.234-.592-.36-.227-.611-.227-.457.076-.618.227-.24.349-.24.592.08.44.24.591.366.228.618.228zm.429 7.605c.061 0 .108-.017.143-.052s.052-.082.052-.143h0v-6.227c0-.061-.017-.108-.052-.143s-.082-.052-.143-.052h0-.858c-.061 0-.108.017-.143.052s-.052.082-.052.143h0v6.227c0 .061.017.108.052.143s.082.052.143.052h0 .858zm4.758.104c.65 0 1.218-.16 1.703-.481a2.2 2.2 0 0 0 .949-1.274l.065-.247c.009-.113-.048-.182-.169-.208h0l-.845-.143c-.052-.009-.1.007-.143.046a.23.23 0 0 0-.078.123h0v.013l-.013.052c-.078.303-.251.553-.52.748s-.589.292-.962.292-.687-.1-.942-.299-.427-.472-.514-.819c-.078-.312-.117-.719-.117-1.222 0-.511.039-.923.117-1.235.078-.329.247-.594.507-.793s.576-.299.949-.299a1.59 1.59 0 0 1 .975.299 1.27 1.27 0 0 1 .507.741h0l.039.169c.026.095.087.143.182.143h0 .039l.845-.117c.113-.017.169-.078.169-.182h0v-.026a1.6 1.6 0 0 0-.091-.364c-.147-.503-.464-.919-.949-1.248s-1.053-.494-1.703-.494-1.211.165-1.684.494a2.47 2.47 0 0 0-.969 1.326c-.13.451-.195.975-.195 1.573 0 .65.065 1.174.195 1.573.173.572.494 1.025.962 1.358s1.031.501 1.69.501zm7.917 2.379c.061 0 .108-.017.143-.052s.052-.082.052-.143h0v-2.821c0-.026.009-.041.026-.045s.035.002.052.02a1.91 1.91 0 0 0 .669.494c.256.113.535.169.838.169.641 0 1.172-.16 1.593-.481s.722-.767.904-1.339c.13-.416.195-.94.195-1.573 0-.676-.078-1.231-.234-1.664-.191-.563-.492-.999-.903-1.306s-.93-.461-1.554-.461a1.99 1.99 0 0 0-.838.175c-.256.117-.479.284-.669.5-.017.017-.035.022-.052.013s-.026-.026-.026-.052h0v-.338c0-.061-.017-.108-.052-.143s-.082-.052-.143-.052h0-.858c-.061 0-.108.017-.143.052s-.052.082-.052.143h0v8.71c0 .061.017.108.052.143s.082.052.143.052h0 .858zm1.651-3.458c-.485 0-.854-.221-1.105-.663-.225-.399-.338-.953-.338-1.664 0-.719.104-1.265.312-1.638.26-.468.637-.702 1.131-.702.581 0 .997.238 1.248.715.217.407.325.945.325 1.612 0 .711-.139 1.283-.416 1.716-.269.416-.654.624-1.157.624zm5.447.975c.061 0 .108-.017.143-.052s.052-.082.052-.143h0v-3.731c0-.425.132-.769.397-1.033s.6-.405 1.007-.422c.043-.009.108-.013.195-.013.165 0 .312.022.442.065.026.009.061.013.104.013.078 0 .121-.043.13-.13h0l.182-.845c.026-.113-.009-.195-.104-.247-.208-.095-.442-.143-.702-.143-.667 0-1.196.295-1.586.884-.017.026-.032.037-.046.032s-.019-.024-.019-.058h0v-.598c0-.061-.017-.108-.052-.143s-.082-.052-.143-.052h0-.858c-.061 0-.108.017-.143.052s-.052.082-.052.143h0v6.227c0 .061.017.108.052.143s.082.052.143.052h0 .858zm6.383.104c.633 0 1.183-.163 1.651-.487s.797-.778.988-1.358c.156-.459.234-.992.234-1.599 0-.598-.078-1.118-.234-1.56-.199-.563-.531-1.007-.994-1.332s-1.007-.487-1.632-.487c-.659 0-1.226.162-1.703.487s-.81.773-1.001 1.346c-.147.425-.221.945-.221 1.56 0 .589.078 1.118.234 1.586.191.581.522 1.033.994 1.358s1.034.487 1.684.487zm0-1.079c-.373 0-.691-.097-.956-.292s-.448-.47-.553-.826c-.095-.312-.143-.719-.143-1.222s.048-.906.143-1.209c.113-.355.299-.63.559-.825s.568-.293.923-.293c.373 0 .689.098.949.293s.446.47.559.825c.087.321.13.724.13 1.209s-.048.893-.143 1.222c-.113.355-.299.631-.559.826s-.563.292-.91.292zm6.981.975c.113 0 .186-.052.221-.156h0l2.067-6.227c.017-.069.013-.123-.013-.162s-.074-.059-.143-.059h0l-.962-.013c-.052 0-.1.015-.143.045s-.069.072-.078.123h0l-1.404 4.641c-.009.035-.022.054-.039.059s-.03-.011-.039-.045h0l-1.417-4.654c-.009-.052-.035-.093-.078-.123s-.091-.045-.143-.045h0-.962c-.113 0-.169.048-.169.143 0 .035.004.061.013.078h0l2.08 6.24c.035.104.108.156.221.156h0 .988zm4.329-7.605c.251 0 .455-.076.611-.228s.234-.349.234-.591-.078-.44-.234-.592-.36-.227-.611-.227-.457.076-.618.227-.24.349-.24.592.08.44.24.591.366.228.618.228zM164.11 43c.061 0 .108-.017.143-.052s.052-.082.052-.143h0v-6.227c0-.061-.017-.108-.052-.143s-.082-.052-.143-.052h0-.858c-.061 0-.108.017-.143.052s-.052.082-.052.143h0v6.227c0 .061.017.108.052.143s.082.052.143.052h0 .858zm4.55.104a1.99 1.99 0 0 0 .839-.175c.256-.117.479-.284.669-.501.017-.017.035-.022.052-.013s.026.026.026.052h0v.338c0 .061.017.108.052.143s.082.052.143.052h0 .858c.061 0 .108-.017.143-.052s.052-.082.052-.143h0v-8.71c0-.061-.017-.108-.052-.143s-.082-.052-.143-.052h0-.858c-.061 0-.108.017-.143.052s-.052.082-.052.143h0v2.821c0 .026-.009.041-.026.046s-.035-.002-.052-.02a1.91 1.91 0 0 0-.669-.494c-.256-.113-.535-.169-.839-.169-.641 0-1.172.16-1.593.481s-.721.767-.904 1.339c-.13.416-.195.94-.195 1.573 0 .676.078 1.231.234 1.664.191.563.492.999.904 1.306s.929.462 1.553.462zm.13-1.079c-.581 0-.997-.238-1.248-.715-.217-.407-.325-.945-.325-1.612 0-.711.139-1.283.416-1.716.269-.416.654-.624 1.157-.624.485 0 .854.221 1.105.663.225.399.338.953.338 1.664s-.104 1.257-.312 1.638c-.26.468-.637.702-1.131.702zm7.202 1.079c.572 0 1.073-.121 1.502-.364a2.54 2.54 0 0 0 .994-1.001h0l.026-.104c0-.069-.035-.126-.104-.169h0l-.533-.325a.19.19 0 0 0-.117-.039c-.052 0-.1.039-.143.117-.303.537-.806.81-1.508.819-.425 0-.78-.1-1.066-.299s-.477-.472-.572-.819c-.043-.139-.074-.373-.091-.702 0-.043.022-.065.065-.065h0 4.108a.17.17 0 0 0 .195-.195l-.091-1.17c-.13-.815-.412-1.436-.845-1.865s-1.062-.643-1.885-.643c-.667 0-1.235.173-1.703.52s-.78.819-.936 1.417c-.095.329-.143.81-.143 1.443 0 .711.108 1.33.325 1.859.217.511.537.904.962 1.176s.945.41 1.56.41zm1.417-3.926h-2.951c-.043 0-.065-.022-.065-.065.017-.295.056-.537.117-.728.087-.321.249-.572.488-.754s.548-.273.929-.273.7.102.956.306.427.474.513.813c.035.139.061.351.078.637 0 .043-.022.065-.065.065h0zm5.239 3.9c.78 0 1.402-.173 1.865-.52a1.66 1.66 0 0 0 .696-1.404c0-.425-.117-.769-.351-1.034s-.518-.464-.852-.598a11.92 11.92 0 0 0-1.254-.41c-.511-.147-.882-.286-1.112-.416a.62.62 0 0 1-.345-.572c0-.251.119-.451.358-.598s.548-.221.929-.221c.425 0 .761.085 1.007.254s.371.379.371.63h0v.078c0 .026.017.048.052.065s.082.026.143.026h0 .78c.061 0 .108-.015.143-.046s.052-.072.052-.123c0-.355-.104-.676-.312-.962s-.505-.509-.89-.669-.83-.241-1.333-.241c-.754 0-1.358.171-1.814.514a1.64 1.64 0 0 0-.683 1.385c0 .416.115.756.345 1.02s.511.468.845.611.748.284 1.242.423c.503.139.867.271 1.092.396s.338.314.338.566c0 .26-.121.474-.364.644s-.563.253-.962.253-.73-.091-.994-.273-.397-.394-.397-.637h0v-.104c0-.026-.017-.048-.052-.065s-.082-.026-.143-.026h0-.806c-.061 0-.108.017-.143.052s-.052.082-.052.143h0v.078a1.42 1.42 0 0 0 .325.904c.217.273.522.488.917.644s.847.234 1.358.234zm9.087-.091l.533-.013c.13-.017.195-.087.195-.208h0v-.676c0-.061-.017-.108-.052-.143s-.082-.052-.143-.052h0-.312c-.355 0-.613-.078-.773-.234s-.24-.42-.24-.793h0v-3.393c0-.043.022-.065.065-.065h0 1.326c.061 0 .108-.017.143-.052s.052-.082.052-.143h0v-.637c0-.061-.017-.108-.052-.143s-.082-.052-.143-.052h0-1.326c-.043 0-.065-.022-.065-.065h0v-1.456c0-.061-.017-.108-.052-.143s-.082-.052-.143-.052h0-.806c-.061 0-.108.017-.143.052s-.052.082-.052.143h0v1.456c0 .043-.022.065-.065.065h0-.715c-.061 0-.108.017-.143.052s-.052.082-.052.143h0v.637c0 .061.017.108.052.143s.082.052.143.052h0 .715c.043 0 .065.022.065.065h0v3.848c0 .641.165 1.079.494 1.313s.828.351 1.495.351h0zm3.38.013c.061 0 .108-.017.143-.052s.052-.082.052-.143h0v-4.212c.043-.373.193-.67.448-.891a1.39 1.39 0 0 1 .942-.331c.416 0 .75.134 1.001.403s.377.62.377 1.053h0v3.978c0 .061.017.108.052.143s.082.052.143.052h0 .858c.061 0 .108-.017.143-.052s.052-.082.052-.143h0V38.58c0-.702-.208-1.259-.624-1.67s-.979-.617-1.69-.617c-.728 0-1.274.23-1.638.689-.009.017-.022.022-.039.013s-.026-.026-.026-.052h0v-2.847c0-.061-.017-.108-.052-.143s-.082-.052-.143-.052h0-.858c-.061 0-.108.017-.143.052s-.052.082-.052.143h0v8.71c0 .061.017.108.052.143s.082.052.143.052h0 .858zm8.658.104c.572 0 1.072-.121 1.501-.364a2.54 2.54 0 0 0 .995-1.001h0l.026-.104c0-.069-.035-.126-.104-.169h0l-.533-.325a.19.19 0 0 0-.117-.039c-.052 0-.1.039-.143.117-.303.537-.806.81-1.508.819-.425 0-.78-.1-1.066-.299s-.477-.472-.572-.819c-.043-.139-.074-.373-.091-.702 0-.043.022-.065.065-.065h0 4.108a.17.17 0 0 0 .195-.195l-.091-1.17c-.13-.815-.412-1.436-.845-1.865s-1.062-.643-1.885-.643c-.667 0-1.235.173-1.703.52s-.78.819-.936 1.417c-.095.329-.143.81-.143 1.443 0 .711.108 1.33.325 1.859.217.511.537.904.962 1.176s.945.41 1.56.41zm1.417-3.926h-2.951c-.043 0-.065-.022-.065-.065.017-.295.056-.537.117-.728.087-.321.249-.572.488-.754s.548-.273.929-.273.7.102.956.306.427.474.513.813c.035.139.061.351.078.637 0 .043-.022.065-.065.065h0zm6.643 6.305c.061 0 .108-.017.143-.052s.052-.082.052-.143h0v-2.821c0-.026.009-.041.026-.045s.035.002.052.02a1.91 1.91 0 0 0 .669.494c.256.113.535.169.839.169.641 0 1.172-.16 1.593-.481s.721-.767.904-1.339c.13-.416.195-.94.195-1.573 0-.676-.078-1.231-.234-1.664-.191-.563-.492-.999-.904-1.306s-.929-.461-1.553-.461a1.99 1.99 0 0 0-.839.175c-.256.117-.479.284-.669.5-.017.017-.035.022-.052.013s-.026-.026-.026-.052h0v-.338c0-.061-.017-.108-.052-.143s-.082-.052-.143-.052h0-.858c-.061 0-.108.017-.143.052s-.052.082-.052.143h0v8.71c0 .061.017.108.052.143s.082.052.143.052h0 .858zm1.651-3.458c-.485 0-.854-.221-1.105-.663-.225-.399-.338-.953-.338-1.664 0-.719.104-1.265.312-1.638.26-.468.637-.702 1.131-.702.581 0 .997.238 1.248.715.217.407.325.945.325 1.612 0 .711-.139 1.283-.416 1.716-.269.416-.654.624-1.157.624zm7.111 1.079c.633 0 1.183-.163 1.651-.487s.797-.778.988-1.358c.156-.459.234-.992.234-1.599 0-.598-.078-1.118-.234-1.56-.199-.563-.531-1.007-.995-1.332s-1.007-.487-1.631-.487c-.659 0-1.226.162-1.703.487s-.81.773-1.001 1.346c-.147.425-.221.945-.221 1.56 0 .589.078 1.118.234 1.586.191.581.522 1.033.994 1.358s1.034.487 1.684.487zm0-1.079c-.373 0-.691-.097-.956-.292s-.448-.47-.553-.826c-.095-.312-.143-.719-.143-1.222s.048-.906.143-1.209c.113-.355.299-.63.559-.825s.568-.293.923-.293c.373 0 .689.098.949.293s.446.47.559.825c.087.321.13.724.13 1.209s-.048.893-.143 1.222c-.113.355-.299.631-.559.826s-.563.292-.91.292zm6.825 1.053c.78 0 1.402-.173 1.866-.52a1.66 1.66 0 0 0 .695-1.404c0-.425-.117-.769-.351-1.034s-.518-.464-.851-.598a11.92 11.92 0 0 0-1.255-.41c-.511-.147-.882-.286-1.112-.416a.62.62 0 0 1-.344-.572c0-.251.119-.451.357-.598s.548-.221.929-.221c.425 0 .761.085 1.008.254s.37.379.37.63h0v.078c0 .026.017.048.052.065s.082.026.143.026h0 .78c.061 0 .108-.015.143-.046s.052-.072.052-.123c0-.355-.104-.676-.312-.962s-.505-.509-.891-.669-.83-.241-1.333-.241c-.754 0-1.358.171-1.814.514a1.64 1.64 0 0 0-.682 1.385c0 .416.115.756.344 1.02s.511.468.845.611.748.284 1.242.423c.503.139.867.271 1.092.396s.338.314.338.566c0 .26-.121.474-.364.644s-.563.253-.962.253-.73-.091-.995-.273-.397-.394-.397-.637h0v-.104c0-.026-.017-.048-.052-.065s-.082-.026-.143-.026h0-.806c-.061 0-.108.017-.143.052s-.052.082-.052.143h0v.078a1.42 1.42 0 0 0 .325.904c.217.273.522.488.916.644s.847.234 1.358.234zm6.188 0c.78 0 1.402-.173 1.865-.52a1.66 1.66 0 0 0 .696-1.404c0-.425-.117-.769-.351-1.034s-.518-.464-.852-.598a11.92 11.92 0 0 0-1.255-.41c-.511-.147-.882-.286-1.111-.416a.62.62 0 0 1-.345-.572c0-.251.119-.451.357-.598s.548-.221.93-.221c.425 0 .761.085 1.007.254s.37.379.37.63h0v.078c0 .026.017.048.052.065s.082.026.143.026h0 .78c.061 0 .108-.015.143-.046s.052-.072.052-.123c0-.355-.104-.676-.312-.962s-.505-.509-.891-.669-.83-.241-1.332-.241c-.754 0-1.359.171-1.814.514a1.64 1.64 0 0 0-.683 1.385c0 .416.115.756.345 1.02s.511.468.845.611.748.284 1.242.423c.503.139.867.271 1.092.396s.338.314.338.566c0 .26-.121.474-.364.644s-.563.253-.962.253-.73-.091-.994-.273-.397-.394-.397-.637h0v-.104c0-.026-.017-.048-.052-.065s-.082-.026-.143-.026h0-.806c-.061 0-.108.017-.143.052s-.052.082-.052.143h0v.078a1.42 1.42 0 0 0 .325.904c.217.273.522.488.917.644s.847.234 1.358.234zm4.745-7.683c.251 0 .455-.076.611-.228s.234-.349.234-.591-.078-.44-.234-.592-.36-.227-.611-.227-.457.076-.618.227-.24.349-.24.592.08.44.24.591.366.228.618.228zm.429 7.605c.061 0 .108-.017.143-.052s.052-.082.052-.143h0v-6.227c0-.061-.017-.108-.052-.143s-.082-.052-.143-.052h0-.858c-.061 0-.108.017-.143.052s-.052.082-.052.143h0v6.227c0 .061.017.108.052.143s.082.052.143.052h0 .858zm4.953.104c.624 0 1.142-.154 1.553-.462s.713-.743.904-1.306c.156-.433.234-.988.234-1.664 0-.633-.065-1.157-.195-1.573-.182-.572-.483-1.018-.904-1.339s-.951-.481-1.592-.481c-.303 0-.583.056-.839.169a1.91 1.91 0 0 0-.669.494c-.017.017-.035.024-.052.02s-.026-.02-.026-.046h0v-2.821c0-.061-.017-.108-.052-.143s-.082-.052-.143-.052h0-.858c-.061 0-.108.017-.143.052s-.052.082-.052.143h0v8.71c0 .061.017.108.052.143s.082.052.143.052h0 .858c.061 0 .108-.017.143-.052s.052-.082.052-.143h0v-.338c0-.026.009-.043.026-.052s.035-.004.052.013c.191.217.414.384.669.501a1.99 1.99 0 0 0 .839.175zm-.13-1.079c-.494 0-.871-.234-1.131-.702-.208-.381-.312-.927-.312-1.638s.113-1.265.338-1.664c.251-.442.62-.663 1.105-.663.503 0 .888.208 1.157.624.277.433.416 1.005.416 1.716 0 .667-.108 1.205-.325 1.612-.251.477-.667.715-1.248.715zm5.122-6.63c.251 0 .455-.076.611-.228s.234-.349.234-.591-.078-.44-.234-.592-.36-.227-.611-.227-.457.076-.618.227-.24.349-.24.592.08.44.24.591.366.228.618.228zm.429 7.605c.061 0 .108-.017.143-.052s.052-.082.052-.143h0v-6.227c0-.061-.017-.108-.052-.143s-.082-.052-.143-.052h0-.858c-.061 0-.108.017-.143.052s-.052.082-.052.143h0v6.227c0 .061.017.108.052.143s.082.052.143.052h0 .858zm3.172 0c.061 0 .108-.017.143-.052s.052-.082.052-.143h0v-8.71c0-.061-.017-.108-.052-.143s-.082-.052-.143-.052h0-.858c-.061 0-.108.017-.143.052s-.052.082-.052.143h0v8.71c0 .061.017.108.052.143s.082.052.143.052h0 .858zm2.756-7.605c.251 0 .455-.076.611-.228s.234-.349.234-.591-.078-.44-.234-.592-.36-.227-.611-.227-.457.076-.618.227-.24.349-.24.592.08.44.24.591.366.228.618.228zm.429 7.605c.061 0 .108-.017.143-.052s.052-.082.052-.143h0v-6.227c0-.061-.017-.108-.052-.143s-.082-.052-.143-.052h0-.858c-.061 0-.108.017-.143.052s-.052.082-.052.143h0v6.227c0 .061.017.108.052.143s.082.052.143.052h0 .858zm4.576-.013l.533-.013c.13-.017.195-.087.195-.208h0v-.676c0-.061-.017-.108-.052-.143s-.082-.052-.143-.052h0-.312c-.355 0-.613-.078-.774-.234s-.24-.42-.24-.793h0v-3.393c0-.043.022-.065.065-.065h0 1.326c.061 0 .108-.017.143-.052s.052-.082.052-.143h0v-.637c0-.061-.017-.108-.052-.143s-.082-.052-.143-.052h0-1.326c-.043 0-.065-.022-.065-.065h0v-1.456c0-.061-.017-.108-.052-.143s-.082-.052-.143-.052h0-.806c-.061 0-.108.017-.143.052s-.052.082-.052.143h0v1.456c0 .043-.022.065-.065.065h0-.715c-.061 0-.108.017-.143.052s-.052.082-.052.143h0v.637c0 .061.017.108.052.143s.082.052.143.052h0 .715c.043 0 .065.022.065.065h0v3.848c0 .641.165 1.079.494 1.313s.828.351 1.495.351h0zm3.055-7.592c.251 0 .455-.076.611-.228s.234-.349.234-.591-.078-.44-.234-.592-.36-.227-.611-.227-.457.076-.618.227-.24.349-.24.592.08.44.24.591.366.228.618.228zm.429 7.605c.061 0 .108-.017.143-.052s.052-.082.052-.143h0v-6.227c0-.061-.017-.108-.052-.143s-.082-.052-.143-.052h0-.858c-.061 0-.108.017-.143.052s-.052.082-.052.143h0v6.227c0 .061.017.108.052.143s.082.052.143.052h0 .858zm4.771.104c.572 0 1.072-.121 1.502-.364a2.54 2.54 0 0 0 .994-1.001h0l.026-.104c0-.069-.035-.126-.104-.169h0l-.533-.325a.19.19 0 0 0-.117-.039c-.052 0-.1.039-.143.117-.303.537-.806.81-1.508.819-.425 0-.78-.1-1.066-.299s-.477-.472-.572-.819c-.043-.139-.074-.373-.091-.702 0-.043.022-.065.065-.065h0 4.108a.17.17 0 0 0 .195-.195l-.091-1.17c-.13-.815-.412-1.436-.845-1.865s-1.062-.643-1.885-.643c-.667 0-1.235.173-1.703.52s-.78.819-.936 1.417c-.095.329-.143.81-.143 1.443 0 .711.108 1.33.325 1.859.217.511.537.904.962 1.176s.945.41 1.56.41zm1.417-3.926h-2.951c-.043 0-.065-.022-.065-.065.017-.295.056-.537.117-.728.087-.321.249-.572.487-.754s.548-.273.93-.273.7.102.956.306.427.474.513.813c.035.139.061.351.078.637 0 .043-.022.065-.065.065h0zm5.239 3.9c.78 0 1.402-.173 1.865-.52a1.66 1.66 0 0 0 .695-1.404c0-.425-.117-.769-.351-1.034s-.518-.464-.851-.598a11.92 11.92 0 0 0-1.255-.41c-.511-.147-.882-.286-1.111-.416a.62.62 0 0 1-.344-.572c0-.251.119-.451.357-.598s.548-.221.93-.221c.425 0 .76.085 1.007.254s.37.379.37.63h0v.078c0 .026.017.048.052.065s.082.026.143.026h0 .78c.061 0 .108-.015.143-.046s.052-.072.052-.123c0-.355-.104-.676-.312-.962s-.505-.509-.89-.669-.83-.241-1.333-.241c-.754 0-1.358.171-1.813.514a1.64 1.64 0 0 0-.683 1.385c0 .416.115.756.344 1.02s.511.468.845.611.748.284 1.241.423c.503.139.867.271 1.092.396s.338.314.338.566c0 .26-.121.474-.364.644s-.563.253-.962.253-.73-.091-.995-.273-.397-.394-.397-.637h0v-.104c0-.026-.017-.048-.052-.065s-.082-.026-.143-.026h0-.806c-.061 0-.108.017-.143.052s-.052.082-.052.143h0v.078a1.42 1.42 0 0 0 .325.904c.217.273.522.488.916.644s.847.234 1.358.234zm4.849-.078a.93.93 0 0 0 .676-.267c.182-.178.273-.392.273-.643 0-.243-.098-.451-.293-.624s-.414-.26-.656-.26a.94.94 0 0 0-.65.26c-.191.173-.286.381-.286.624a.87.87 0 0 0 .267.65.92.92 0 0 0 .669.26z" fill-rule="nonzero"/><path d="M45.159 35.214c4.505-.084 7.068-2.164 7.068-5.519 0-5.573-6.267-8.727-18.126-9.123l-.91-.033v6.65l4.354.335v-2.641c6.222.455 10.494 2.228 10.494 4.415 0 1.546-2.007 1.871-3.687 1.871-3.027 0-4.882-.149-7.032-.323l-3.195-.234-.935-.056v13.495c-5.141-2.551-8.693-7.843-8.693-13.96 0-8.597 6.995-15.594 15.597-15.594 8.595 0 15.587 6.997 15.587 15.594 0 7.531-5.363 13.829-12.467 15.278v4.545c9.6-1.506 16.971-9.809 16.971-19.824C60.186 19.012 51.172 10 40.095 10A20.12 20.12 0 0 0 20 30.091C20 40.302 27.667 48.739 37.54 50V36.409h.006V35.02c1.149.062 3.105.283 7.613.194"/></g></svg>